# WaveFront *.obj file (generated by Autodesk ATF)

mtllib P13.mtl

g Body1

v -22.265761 2.850000 -6.405638
v -22.372062 2.850000 -6.023881
v -22.471818 2.850000 -5.640361
v -22.565000 2.850000 -5.255192
v -22.651581 2.850000 -4.868485
v -22.731536 2.850000 -4.480354
v -22.718063 3.266278 -4.477699
v -22.698303 3.682252 -4.473804
v -22.672260 4.097806 -4.468671
v -22.639941 4.512826 -4.462301
v -22.601355 4.927196 -4.454696
v -22.556514 5.340802 -4.445857
v -22.505428 5.753530 -4.435789
v -22.448114 6.165264 -4.424492
v -22.384586 6.575892 -4.411971
v -22.314862 6.985300 -4.398228
v -22.238961 7.393373 -4.383268
v -22.156904 7.800000 -4.367095
v -22.078971 7.800000 -4.745414
v -21.994579 7.800000 -5.122346
v -21.903752 7.800000 -5.497778
v -21.806518 7.800000 -5.871603
v -21.702903 7.800000 -6.243709
v -21.783279 7.393373 -6.266832
v -21.857624 6.985300 -6.288221
v -21.925920 6.575892 -6.307869
v -21.988146 6.165264 -6.325771
v -22.044286 5.753530 -6.341922
v -22.094325 5.340802 -6.356317
v -22.138247 4.927196 -6.368953
v -22.176042 4.512826 -6.379827
v -22.207699 4.097806 -6.388934
v -22.233209 3.682252 -6.396273
v -22.252564 3.266278 -6.401841
v -21.892426 7.496151 -5.794506
v -22.388221 3.162386 -5.925734
v -22.120139 7.496151 -4.853254
v -22.621091 3.162386 -4.963165
v -22.323598 3.162386 -6.164717
v -22.310758 3.474786 -6.161171
v -22.294428 3.787129 -6.156661
v -22.274608 4.099340 -6.151188
v -22.251300 4.411346 -6.144751
v -22.224504 4.723074 -6.137352
v -22.194227 5.034451 -6.128991
v -22.160473 5.345402 -6.119669
v -22.123394 5.654707 -6.109430
v -22.082882 5.963447 -6.098242
v -22.038945 6.271548 -6.086109
v -21.991598 6.578940 -6.073034
v -21.940853 6.885551 -6.059021
v -21.886726 7.191312 -6.044074
v -21.829234 7.496151 -6.028197
v -22.375344 3.474786 -5.922325
v -22.358967 3.787129 -5.917990
v -22.339090 4.099340 -5.912729
v -22.315713 4.411346 -5.906542
v -22.288840 4.723074 -5.899429
v -22.258475 5.034451 -5.891392
v -22.224624 5.345402 -5.882432
v -22.187438 5.654707 -5.872590
v -22.146808 5.963447 -5.861836
v -22.102744 6.271548 -5.850173
v -22.055260 6.578940 -5.837605
v -22.004368 6.885551 -5.824135
v -21.950085 7.191312 -5.809767
v -22.509802 3.162386 -5.445694
v -22.496854 3.474786 -5.442562
v -22.480389 3.787129 -5.438578
v -22.460404 4.099340 -5.433743
v -22.436900 4.411346 -5.428057
v -22.409882 4.723074 -5.421521
v -22.379351 5.034451 -5.414135
v -22.345316 5.345402 -5.405901
v -22.307928 5.654707 -5.396856
v -22.267077 5.963447 -5.386973
v -22.222775 6.271548 -5.376255
v -22.175032 6.578940 -5.364705
v -22.123864 6.885551 -5.352326
v -22.069286 7.191312 -5.339122
v -22.011314 7.496151 -5.325097
v -21.953123 7.496151 -5.560126
v -22.010941 7.191312 -5.574770
v -22.065376 6.885551 -5.588557
v -22.116408 6.578940 -5.601482
v -22.164025 6.271548 -5.613542
v -22.208210 5.963447 -5.624733
v -22.248953 5.654707 -5.635052
v -22.286242 5.345402 -5.644496
v -22.320187 5.034451 -5.653094
v -22.350637 4.723074 -5.660806
v -22.377584 4.411346 -5.667631
v -22.401025 4.099340 -5.673568
v -22.420957 3.787129 -5.678616
v -22.437380 3.474786 -5.682775
v -22.450293 3.162386 -5.686046
v -22.566738 3.162386 -5.204720
v -22.553758 3.474786 -5.201726
v -22.537250 3.787129 -5.197919
v -22.517215 4.099340 -5.193298
v -22.493652 4.411346 -5.187864
v -22.466565 4.723074 -5.181617
v -22.435957 5.034451 -5.174557
v -22.401836 5.345402 -5.166688
v -22.364353 5.654707 -5.158043
v -22.323399 5.963447 -5.148597
v -22.278985 6.271548 -5.138354
v -22.231122 6.578940 -5.127315
v -22.179824 6.885551 -5.115484
v -22.125108 7.191312 -5.102864
v -22.066989 7.496151 -5.089460
v -22.672853 3.162386 -4.721070
v -22.659812 3.474786 -4.718355
v -22.643227 3.787129 -4.714901
v -22.623097 4.099340 -4.710710
v -22.599423 4.411346 -4.705780
v -22.572209 4.723074 -4.700114
v -22.541458 5.034451 -4.693710
v -22.507176 5.345402 -4.686572
v -22.469517 5.654707 -4.678731
v -22.428370 5.963447 -4.670163
v -22.383747 6.271548 -4.660871
v -22.335659 6.578940 -4.650858
v -22.284120 6.885551 -4.640126
v -22.229146 7.191312 -4.628679
v -22.170755 7.496151 -4.616521
v -22.178397 7.191312 -4.866036
v -22.233245 6.885551 -4.878070
v -22.284666 6.578940 -4.889352
v -22.332645 6.271548 -4.899879
v -22.377167 5.963447 -4.909647
v -22.418219 5.654707 -4.918654
v -22.455792 5.345402 -4.926898
v -22.489996 5.034451 -4.934402
v -22.520677 4.723074 -4.941134
v -22.547829 4.411346 -4.947091
v -22.571448 4.099340 -4.952273
v -22.591532 3.787129 -4.956680
v -22.608080 3.474786 -4.960310
v -21.997631 7.800000 -4.335703
v -21.920259 7.800000 -4.711303
v -21.836473 7.800000 -5.085524
v -21.746299 7.800000 -5.458258
v -21.649763 7.800000 -5.829395
v -21.546894 7.800000 -6.198827
v -22.113150 2.850000 -6.361733
v -22.218722 2.850000 -5.982593
v -22.317795 2.850000 -5.601702
v -22.410339 2.850000 -5.219172
v -22.496326 2.850000 -4.835116
v -22.575732 2.850000 -4.449645
v -22.074050 7.424777 -4.350765
v -22.145194 7.048297 -4.364787
v -22.211048 6.670651 -4.377767
v -22.271594 6.291929 -4.389700
v -22.326819 5.912221 -4.400585
v -22.376709 5.531618 -4.410418
v -22.421253 5.150211 -4.419198
v -22.460439 4.768091 -4.426921
v -22.494259 4.385350 -4.433587
v -22.522705 4.002079 -4.439194
v -22.545769 3.618369 -4.443740
v -22.563446 3.234312 -4.447224
v -22.101115 3.234312 -6.358271
v -22.083800 3.618369 -6.353289
v -22.061209 4.002079 -6.346790
v -22.033346 4.385350 -6.338774
v -22.000219 4.768091 -6.329244
v -21.961835 5.150211 -6.318201
v -21.918204 5.531618 -6.305649
v -21.869336 5.912221 -6.291590
v -21.815243 6.291929 -6.276028
v -21.755937 6.670651 -6.258967
v -21.691434 7.048297 -6.240409
v -21.621747 7.424777 -6.220361
v -22.234650 3.162428 -5.885086
v -21.735856 7.496227 -5.753065
v -22.465922 3.162428 -4.929120
v -21.961940 7.496227 -4.818545
v -22.517329 3.162428 -4.688686
v -22.504209 3.474872 -4.685954
v -22.487523 3.787257 -4.682480
v -22.467270 4.099509 -4.678263
v -22.443451 4.411553 -4.673303
v -22.416070 4.723316 -4.667602
v -22.385130 5.034721 -4.661159
v -22.350638 5.345697 -4.653977
v -22.312751 5.654998 -4.646088
v -22.271356 5.963725 -4.637468
v -22.226463 6.271806 -4.628120
v -22.178085 6.579168 -4.618047
v -22.126237 6.885740 -4.607251
v -22.070934 7.191450 -4.595735
v -22.012194 7.496227 -4.583504
v -22.452832 3.474872 -4.926248
v -22.436184 3.787257 -4.922596
v -22.415977 4.099509 -4.918162
v -22.392213 4.411553 -4.912948
v -22.364894 4.723316 -4.906954
v -22.334025 5.034721 -4.900182
v -22.299612 5.345697 -4.892631
v -22.261811 5.654998 -4.884337
v -22.220510 5.963725 -4.875276
v -22.175720 6.271806 -4.865449
v -22.127453 6.579168 -4.854859
v -22.075723 6.885740 -4.843509
v -22.020546 7.191450 -4.831403
v -22.355397 3.162428 -5.408340
v -22.342371 3.474872 -5.405188
v -22.325805 3.787257 -5.401181
v -22.305697 4.099509 -5.396316
v -22.282050 4.411553 -5.390595
v -22.254866 4.723316 -5.384019
v -22.224148 5.034721 -5.376587
v -22.189904 5.345697 -5.368303
v -22.152290 5.654998 -5.359203
v -22.111192 5.963725 -5.349260
v -22.066622 6.271806 -5.338478
v -22.018592 6.579168 -5.326858
v -21.967117 6.885740 -5.314405
v -21.912212 7.191450 -5.301122
v -21.853894 7.496227 -5.287013
v -21.909171 7.496227 -5.053061
v -21.967636 7.191450 -5.066545
v -22.022680 6.885740 -5.079240
v -22.074286 6.579168 -5.091143
v -22.122437 6.271806 -5.102248
v -22.167120 5.963725 -5.112554
v -22.208321 5.654998 -5.122056
v -22.246031 5.345697 -5.130753
v -22.280362 5.034721 -5.138671
v -22.311157 4.723316 -5.145774
v -22.338410 4.411553 -5.152059
v -22.362117 4.099509 -5.157527
v -22.382275 3.787257 -5.162176
v -22.398883 3.474872 -5.166007
v -22.411942 3.162428 -5.169019
v -22.296296 3.162428 -5.647042
v -22.283304 3.474872 -5.643752
v -22.266782 3.787257 -5.639567
v -22.246728 4.099509 -5.634488
v -22.223143 4.411553 -5.628515
v -22.196031 4.723316 -5.621648
v -22.165394 5.034721 -5.613889
v -22.131241 5.345697 -5.605239
v -22.093726 5.654998 -5.595737
v -22.052737 5.963725 -5.585356
v -22.008285 6.271806 -5.574097
v -21.960382 6.579168 -5.561965
v -21.909042 6.885740 -5.548962
v -21.854282 7.191450 -5.535093
v -21.796119 7.496227 -5.520361
v -22.170470 3.162428 -6.122430
v -22.157552 3.474872 -6.118863
v -22.141123 3.787257 -6.114326
v -22.121182 4.099509 -6.108819
v -22.097730 4.411553 -6.102343
v -22.070771 4.723316 -6.094898
v -22.040307 5.034721 -6.086485
v -22.006346 5.345697 -6.077107
v -21.969043 5.654998 -6.066806
v -21.928286 5.963725 -6.055550
v -21.884084 6.271806 -6.043344
v -21.836452 6.579168 -6.030190
v -21.785402 6.885740 -6.016093
v -21.730951 7.191450 -6.001056
v -21.673116 7.496227 -5.985085
v -21.793859 7.191450 -5.768417
v -21.848467 6.885740 -5.782871
v -21.899665 6.579168 -5.796422
v -21.947435 6.271806 -5.809066
v -21.991764 5.963725 -5.820799
v -22.032640 5.654998 -5.831618
v -22.070051 5.345697 -5.841520
v -22.104110 5.034721 -5.850535
v -22.134662 4.723316 -5.858621
v -22.161700 4.411553 -5.865778
v -22.185219 4.099509 -5.872003
v -22.205218 3.787257 -5.877296
v -22.221694 3.474872 -5.881657
vt 4.580025 0.000000 0.000000
vt 4.996968 0.000000 0.000000
vt 4.684079 0.245809 0.000000
vt 4.996968 0.393352 0.000000
vt 4.684079 0.491618 0.000000
vt 4.996968 0.786617 0.000000
vt 4.684079 0.737427 0.000000
vt 4.684079 0.983236 0.000000
vt 4.371189 0.983236 0.000000
vt 4.371189 1.229044 0.000000
vt 4.058300 1.229044 0.000000
vt 4.058300 1.474853 0.000000
vt 3.745410 1.474853 0.000000
vt 3.745410 1.720662 0.000000
vt 3.432521 1.720662 0.000000
vt 3.746948 1.966471 0.000000
vt 3.330697 1.966471 0.000000
vt 4.996968 1.179854 0.000000
vt 4.684079 1.229044 0.000000
vt 4.371189 1.474853 0.000000
vt 4.058300 1.720662 0.000000
vt 4.684079 1.474853 0.000000
vt 4.996968 1.573119 0.000000
vt 4.684079 1.720662 0.000000
vt 4.996968 1.966471 0.000000
vt 4.580025 1.966471 0.000000
vt 4.371189 1.720662 0.000000
vt 4.163371 1.966471 0.000000
vt 3.119631 1.720662 0.000000
vt 2.914562 1.966471 0.000000
vt 2.806742 1.720662 0.000000
vt 2.498484 1.966471 0.000000
vt 2.493852 1.720662 0.000000
vt 2.182121 1.720662 0.000000
vt 2.493852 1.474853 0.000000
vt 2.182121 1.474853 0.000000
vt 2.493852 1.229044 0.000000
vt 2.182121 1.229044 0.000000
vt 2.493852 0.983236 0.000000
vt 2.182121 0.983236 0.000000
vt 2.493852 0.737427 0.000000
vt 2.182121 0.737427 0.000000
vt 2.493852 0.491618 0.000000
vt 2.182121 0.491618 0.000000
vt 2.493852 0.245809 0.000000
vt 2.182121 0.245809 0.000000
vt 2.498484 0.000000 0.000000
vt 2.082406 0.000000 0.000000
vt 1.870389 0.245809 0.000000
vt 1.666271 0.000000 0.000000
vt 1.558658 0.245809 0.000000
vt 1.250020 0.000000 0.000000
vt 1.246926 0.245809 0.000000
vt 0.935195 0.245809 0.000000
vt 0.935195 0.491618 0.000000
vt 0.623463 0.491618 0.000000
vt 0.623463 0.737427 0.000000
vt 0.311732 0.737427 0.000000
vt 0.311732 0.983236 0.000000
vt 0.000000 0.786617 0.000000
vt 0.000000 1.179854 0.000000
vt 0.311732 1.229044 0.000000
vt 0.311732 1.474853 0.000000
vt 0.623463 1.229044 0.000000
vt 0.623463 1.474853 0.000000
vt 0.935195 1.229044 0.000000
vt 0.935195 1.474853 0.000000
vt 1.246926 1.229044 0.000000
vt 1.246926 1.474853 0.000000
vt 1.558658 1.229044 0.000000
vt 1.558658 1.474853 0.000000
vt 1.870389 1.229044 0.000000
vt 1.870389 1.474853 0.000000
vt 2.082406 1.966471 0.000000
vt 1.870389 1.720662 0.000000
vt 1.666271 1.966471 0.000000
vt 1.558658 1.720662 0.000000
vt 1.250020 1.966471 0.000000
vt 1.246926 1.720662 0.000000
vt 0.935195 1.720662 0.000000
vt 0.833597 1.966471 0.000000
vt 0.623463 1.720662 0.000000
vt 0.416943 1.966471 0.000000
vt 0.311732 1.720662 0.000000
vt 0.000000 1.966471 0.000000
vt 0.000000 1.573119 0.000000
vt 0.311732 0.491618 0.000000
vt 0.000000 0.393352 0.000000
vt 0.311732 0.245809 0.000000
vt 0.000000 0.000000 0.000000
vt 0.416943 0.000000 0.000000
vt 0.623463 0.245809 0.000000
vt 0.833597 0.000000 0.000000
vt 2.806742 0.245809 0.000000
vt 2.914562 0.000000 0.000000
vt 3.119631 0.245809 0.000000
vt 3.330697 0.000000 0.000000
vt 3.432521 0.245809 0.000000
vt 3.746948 0.000000 0.000000
vt 3.745410 0.245809 0.000000
vt 4.058300 0.245809 0.000000
vt 3.745410 0.491618 0.000000
vt 4.058300 0.491618 0.000000
vt 3.745410 0.737427 0.000000
vt 4.058300 0.737427 0.000000
vt 3.745410 0.983236 0.000000
vt 4.058300 0.983236 0.000000
vt 3.745410 1.229044 0.000000
vt 4.163371 0.000000 0.000000
vt 4.371189 0.245809 0.000000
vt 4.371189 0.491618 0.000000
vt 4.371189 0.737427 0.000000
vt 3.432521 0.491618 0.000000
vt 3.432521 0.737427 0.000000
vt 3.432521 0.983236 0.000000
vt 3.432521 1.229044 0.000000
vt 3.432521 1.474853 0.000000
vt 3.119631 0.491618 0.000000
vt 3.119631 0.737427 0.000000
vt 3.119631 0.983236 0.000000
vt 3.119631 1.229044 0.000000
vt 3.119631 1.474853 0.000000
vt 2.806742 0.491618 0.000000
vt 2.806742 0.737427 0.000000
vt 2.806742 0.983236 0.000000
vt 2.806742 1.229044 0.000000
vt 2.806742 1.474853 0.000000
vt 1.870389 0.491618 0.000000
vt 1.870389 0.737427 0.000000
vt 1.870389 0.983236 0.000000
vt 1.558658 0.491618 0.000000
vt 1.558658 0.737427 0.000000
vt 1.558658 0.983236 0.000000
vt 1.246926 0.491618 0.000000
vt 1.246926 0.737427 0.000000
vt 1.246926 0.983236 0.000000
vt 0.935195 0.737427 0.000000
vt 0.623463 0.983236 0.000000
vt 0.935195 0.983236 0.000000
vt -16.201190 -41.846943 0.000000
vt -16.246072 -42.002952 0.000000
vt -15.831758 -41.949812 0.000000
vt -15.873965 -42.106566 0.000000
vt -15.460621 -42.046348 0.000000
vt -15.500141 -42.203801 0.000000
vt -15.087887 -42.136522 0.000000
vt -15.124708 -42.294628 0.000000
vt -14.713665 -42.220307 0.000000
vt -14.747777 -42.379020 0.000000
vt -14.338065 -42.297680 0.000000
vt -14.369458 -42.456953 0.000000
vt 12.520012 -43.519103 0.000000
vt 12.140872 -43.624676 0.000000
vt 12.563917 -43.671714 0.000000
vt 12.182160 -43.778015 0.000000
vt 11.759981 -43.723748 0.000000
vt 11.798641 -43.877771 0.000000
vt 11.377452 -43.816292 0.000000
vt 11.413471 -43.970953 0.000000
vt 10.993396 -43.902279 0.000000
vt 11.026765 -44.057534 0.000000
vt 10.607925 -43.981686 0.000000
vt 10.638634 -44.137489 0.000000
vt -0.000000 1.562180 0.000000
vt -0.000000 1.952796 0.000000
vt -0.311757 1.708696 0.000000
vt -0.384932 1.952796 0.000000
vt -0.623513 1.708696 0.000000
vt -0.769612 1.952796 0.000000
vt -0.935270 1.708696 0.000000
vt -1.154085 1.952796 0.000000
vt -1.247027 1.708696 0.000000
vt -1.538396 1.952796 0.000000
vt -1.558784 1.708696 0.000000
vt -1.870540 1.708696 0.000000
vt -1.558784 1.464597 0.000000
vt -1.870540 1.464597 0.000000
vt -1.558784 1.220497 0.000000
vt -1.870540 1.220497 0.000000
vt -1.558784 0.976398 0.000000
vt -1.870540 0.976398 0.000000
vt -1.558784 0.732298 0.000000
vt -1.870540 0.732298 0.000000
vt -1.558784 0.488199 0.000000
vt -1.870540 0.488199 0.000000
vt -1.558784 0.244099 0.000000
vt -1.870540 0.244099 0.000000
vt -1.538396 0.000000 0.000000
vt -1.922593 0.000000 0.000000
vt -2.182297 0.244099 0.000000
vt -2.306722 0.000000 0.000000
vt -2.494054 0.244099 0.000000
vt -2.690827 0.000000 0.000000
vt -2.806991 0.244099 0.000000
vt -3.074955 0.000000 0.000000
vt -3.119927 0.244099 0.000000
vt -3.459152 0.000000 0.000000
vt -3.432864 0.244099 0.000000
vt -3.745801 0.244099 0.000000
vt -3.745801 0.488199 0.000000
vt -4.058738 0.488199 0.000000
vt -4.058738 0.732298 0.000000
vt -4.371675 0.732298 0.000000
vt -4.371675 0.976398 0.000000
vt -4.684612 0.976398 0.000000
vt -4.684612 1.220497 0.000000
vt -4.997549 1.171649 0.000000
vt -4.684612 1.464597 0.000000
vt -4.997549 1.562180 0.000000
vt -4.684612 1.708696 0.000000
vt -4.997549 1.952796 0.000000
vt -4.612616 1.952796 0.000000
vt -4.371675 1.708696 0.000000
vt -4.227937 1.952796 0.000000
vt -4.058738 1.708696 0.000000
vt -3.843464 1.952796 0.000000
vt -3.745801 1.708696 0.000000
vt -3.459152 1.952796 0.000000
vt -3.432864 1.708696 0.000000
vt -3.119927 1.708696 0.000000
vt -3.119927 1.464597 0.000000
vt -2.806991 1.464597 0.000000
vt -2.806991 1.220497 0.000000
vt -2.494054 1.220497 0.000000
vt -2.494054 0.976398 0.000000
vt -2.182297 0.976398 0.000000
vt -2.182297 0.732298 0.000000
vt -1.922593 1.952796 0.000000
vt -2.182297 1.708696 0.000000
vt -2.182297 1.464597 0.000000
vt -2.182297 1.220497 0.000000
vt -2.306722 1.952796 0.000000
vt -2.494054 1.708696 0.000000
vt -2.494054 1.464597 0.000000
vt -2.690827 1.952796 0.000000
vt -2.806991 1.708696 0.000000
vt -3.074955 1.952796 0.000000
vt -4.997549 0.781147 0.000000
vt -4.684612 0.732298 0.000000
vt -4.371675 0.488199 0.000000
vt -4.058738 0.244099 0.000000
vt -3.843464 0.000000 0.000000
vt -4.684612 0.488199 0.000000
vt -4.997549 0.390616 0.000000
vt -4.684612 0.244099 0.000000
vt -4.997549 0.000000 0.000000
vt -4.612616 0.000000 0.000000
vt -4.371675 0.244099 0.000000
vt -4.227937 0.000000 0.000000
vt -1.247027 0.244099 0.000000
vt -1.154085 0.000000 0.000000
vt -0.935270 0.244099 0.000000
vt -0.769612 0.000000 0.000000
vt -0.623513 0.244099 0.000000
vt -0.384932 0.000000 0.000000
vt -0.311757 0.244099 0.000000
vt -0.000000 0.000000 0.000000
vt -0.000000 0.390616 0.000000
vt -0.311757 0.488199 0.000000
vt -0.000000 0.781147 0.000000
vt -0.311757 0.732298 0.000000
vt -0.311757 0.976398 0.000000
vt -0.623513 0.976398 0.000000
vt -0.623513 1.220497 0.000000
vt -0.935270 1.220497 0.000000
vt -0.935270 1.464597 0.000000
vt -1.247027 1.464597 0.000000
vt -0.000000 1.171649 0.000000
vt -0.311757 1.220497 0.000000
vt -0.623513 1.464597 0.000000
vt -0.311757 1.464597 0.000000
vt -4.371675 1.464597 0.000000
vt -4.371675 1.220497 0.000000
vt -4.058738 1.464597 0.000000
vt -4.058738 1.220497 0.000000
vt -4.058738 0.976398 0.000000
vt -3.745801 1.464597 0.000000
vt -3.745801 1.220497 0.000000
vt -3.745801 0.976398 0.000000
vt -3.745801 0.732298 0.000000
vt -3.432864 1.464597 0.000000
vt -3.432864 1.220497 0.000000
vt -3.432864 0.976398 0.000000
vt -3.432864 0.732298 0.000000
vt -3.432864 0.488199 0.000000
vt -3.119927 1.220497 0.000000
vt -2.806991 0.976398 0.000000
vt -2.494054 0.732298 0.000000
vt -2.182297 0.488199 0.000000
vt -1.247027 1.220497 0.000000
vt -1.247027 0.976398 0.000000
vt -1.247027 0.732298 0.000000
vt -1.247027 0.488199 0.000000
vt -3.119927 0.976398 0.000000
vt -3.119927 0.732298 0.000000
vt -3.119927 0.488199 0.000000
vt -2.806991 0.732298 0.000000
vt -2.494054 0.488199 0.000000
vt -0.935270 0.976398 0.000000
vt -0.623513 0.732298 0.000000
vt -0.935270 0.732298 0.000000
vt -0.935270 0.488199 0.000000
vt -2.806991 0.488199 0.000000
vt -0.623513 0.488199 0.000000
vt 44.695024 4.950000 0.000000
vt 44.772913 4.574777 0.000000
vt 44.857361 4.950000 0.000000
vt 44.845426 4.198297 0.000000
vt 44.940996 4.543373 0.000000
vt 44.912546 3.820651 0.000000
vt 45.018357 4.135300 0.000000
vt 44.974257 3.441929 0.000000
vt 45.089423 3.725892 0.000000
vt 45.030544 3.062221 0.000000
vt 45.154173 3.315264 0.000000
vt 45.081395 2.681618 0.000000
vt 45.212590 2.903530 0.000000
vt 45.126795 2.300211 0.000000
vt 45.264658 2.490802 0.000000
vt 45.166736 1.918091 0.000000
vt 45.310363 2.077196 0.000000
vt 45.201207 1.535350 0.000000
vt 45.349691 1.662826 0.000000
vt 45.230199 1.152079 0.000000
vt 45.382631 1.247806 0.000000
vt 45.253707 0.768369 0.000000
vt 45.409176 0.832252 0.000000
vt 45.271725 0.384312 0.000000
vt 45.429316 0.416278 0.000000
vt 45.284247 0.000000 0.000000
vt 45.443048 0.000000 0.000000
vt -1.181974 4.543373 0.000000
vt -1.086404 4.198297 0.000000
vt -1.098339 4.950000 0.000000
vt -1.013891 4.574777 0.000000
vt -0.936002 4.950000 0.000000
vt -1.153524 3.820651 0.000000
vt -1.259335 4.135300 0.000000
vt -1.215235 3.441929 0.000000
vt -1.330401 3.725892 0.000000
vt -1.271523 3.062221 0.000000
vt -1.395151 3.315264 0.000000
vt -1.322373 2.681618 0.000000
vt -1.453569 2.903530 0.000000
vt -1.367773 2.300211 0.000000
vt -1.505637 2.490802 0.000000
vt -1.407714 1.918091 0.000000
vt -1.551341 2.077196 0.000000
vt -1.442185 1.535350 0.000000
vt -1.590669 1.662826 0.000000
vt -1.471178 1.152079 0.000000
vt -1.623609 1.247806 0.000000
vt -1.494685 0.768369 0.000000
vt -1.650154 0.832252 0.000000
vt -1.512703 0.384312 0.000000
vt -1.670294 0.416278 0.000000
vt -1.525225 -0.000000 0.000000
vt -1.684026 0.000000 0.000000
vn -0.960226 0.040666 -0.276247
vn -0.960714 0.025269 -0.276388
vn -0.963267 0.036823 -0.266009
vn -0.965301 0.025269 -0.259916
vn -0.966056 0.036823 -0.255696
vn -0.969605 0.025269 -0.243368
vn -0.968734 0.036823 -0.245354
vn -0.971302 0.036823 -0.234983
vn -0.970823 0.048379 -0.234867
vn -0.973278 0.048379 -0.224474
vn -0.972668 0.059936 -0.224333
vn -0.975010 0.059936 -0.213921
vn -0.974267 0.071493 -0.213758
vn -0.976496 0.071493 -0.203332
vn -0.975620 0.083047 -0.203149
vn -0.978618 0.071436 -0.192884
vn -0.977421 0.086806 -0.192648
vn -0.973625 0.025269 -0.226749
vn -0.973759 0.036823 -0.224585
vn -0.975623 0.048379 -0.214056
vn -0.977241 0.059936 -0.203487
vn -0.976104 0.036823 -0.214161
vn -0.977361 0.025269 -0.210063
vn -0.978338 0.036823 -0.203715
vn -0.980811 0.025269 -0.193316
vn -0.980313 0.040666 -0.193218
vn -0.977855 0.048379 -0.203615
vn -0.979582 0.056055 -0.193074
vn -0.974611 0.094596 -0.202939
vn -0.975991 0.102161 -0.192366
vn -0.973471 0.106138 -0.202702
vn -0.974328 0.117501 -0.192039
vn -0.972200 0.117672 -0.202437
vn -0.970802 0.129152 -0.202146
vn -0.969980 0.117672 -0.212818
vn -0.968586 0.129152 -0.212512
vn -0.967650 0.117672 -0.223176
vn -0.966259 0.129152 -0.222855
vn -0.965208 0.117672 -0.233508
vn -0.963821 0.129152 -0.233173
vn -0.962657 0.117672 -0.243815
vn -0.961273 0.129152 -0.243464
vn -0.959995 0.117672 -0.254092
vn -0.958615 0.129152 -0.253727
vn -0.957224 0.117672 -0.264340
vn -0.955848 0.129152 -0.263960
vn -0.954364 0.117501 -0.274561
vn -0.952506 0.132822 -0.274027
vn -0.954343 0.140620 -0.263544
vn -0.950420 0.148121 -0.273426
vn -0.952710 0.152073 -0.263093
vn -0.948105 0.163396 -0.272760
vn -0.950948 0.163510 -0.262607
vn -0.949058 0.174928 -0.262085
vn -0.951806 0.174928 -0.251925
vn -0.949782 0.186326 -0.251389
vn -0.952415 0.186326 -0.241221
vn -0.950258 0.197702 -0.240674
vn -0.952777 0.197702 -0.230501
vn -0.948484 0.209053 -0.238067
vn -0.952417 0.209053 -0.221810
vn -0.955187 0.197702 -0.220301
vn -0.957487 0.197702 -0.210077
vn -0.957355 0.186326 -0.220801
vn -0.959661 0.186326 -0.210554
vn -0.959395 0.174928 -0.221272
vn -0.961706 0.174928 -0.211002
vn -0.961305 0.163510 -0.221712
vn -0.963621 0.163510 -0.211423
vn -0.963086 0.152073 -0.222123
vn -0.965406 0.152073 -0.211814
vn -0.964737 0.140620 -0.222504
vn -0.967061 0.140620 -0.212177
vn -0.972431 0.132822 -0.191665
vn -0.969274 0.140620 -0.201828
vn -0.970302 0.148121 -0.191245
vn -0.967615 0.152073 -0.201482
vn -0.967939 0.163396 -0.190779
vn -0.965826 0.163510 -0.201110
vn -0.963906 0.174928 -0.200710
vn -0.965342 0.178645 -0.190267
vn -0.961857 0.186326 -0.200283
vn -0.962511 0.193865 -0.189710
vn -0.959678 0.197702 -0.199830
vn -0.959446 0.209053 -0.189105
vn -0.956071 0.209053 -0.205488
vn -0.947630 0.197702 -0.250820
vn -0.944273 0.209053 -0.254254
vn -0.944895 0.197702 -0.260935
vn -0.939786 0.209053 -0.270367
vn -0.942789 0.193865 -0.271231
vn -0.947041 0.186326 -0.261528
vn -0.945561 0.178645 -0.272029
vn -0.958476 0.106138 -0.264686
vn -0.955993 0.102161 -0.275030
vn -0.959598 0.094596 -0.264995
vn -0.957393 0.086806 -0.275432
vn -0.960591 0.083047 -0.265270
vn -0.958566 0.071436 -0.275770
vn -0.961454 0.071493 -0.265508
vn -0.962188 0.059936 -0.265711
vn -0.964237 0.071493 -0.255215
vn -0.964973 0.059936 -0.255410
vn -0.966911 0.071493 -0.244892
vn -0.967649 0.059936 -0.245079
vn -0.969474 0.071493 -0.234540
vn -0.970214 0.059936 -0.234719
vn -0.971926 0.071493 -0.224162
vn -0.959510 0.056055 -0.276041
vn -0.962792 0.048379 -0.265877
vn -0.965579 0.048379 -0.255570
vn -0.968256 0.048379 -0.245233
vn -0.963372 0.083047 -0.254986
vn -0.966043 0.083047 -0.244672
vn -0.968604 0.083047 -0.234330
vn -0.971053 0.083047 -0.223961
vn -0.973392 0.083047 -0.213566
vn -0.962376 0.094596 -0.254723
vn -0.965044 0.094596 -0.244419
vn -0.967603 0.094596 -0.234088
vn -0.970050 0.094596 -0.223729
vn -0.972386 0.094596 -0.213346
vn -0.961251 0.106138 -0.254425
vn -0.963916 0.106138 -0.244134
vn -0.966471 0.106138 -0.233814
vn -0.968915 0.106138 -0.223468
vn -0.971249 0.106138 -0.213096
vn -0.957106 0.140620 -0.253328
vn -0.959759 0.140620 -0.243081
vn -0.962303 0.140620 -0.232806
vn -0.955468 0.152073 -0.252894
vn -0.958117 0.152073 -0.242665
vn -0.960656 0.152073 -0.232407
vn -0.953701 0.163510 -0.252426
vn -0.956345 0.163510 -0.242216
vn -0.958880 0.163510 -0.231978
vn -0.954445 0.174928 -0.241735
vn -0.954940 0.186326 -0.231024
vn -0.956975 0.174928 -0.231517
vn 0.000000 1.000000 0.000000
vn 0.000000 1.000000 0.000000
vn 0.000000 1.000000 0.000000
vn 0.000000 1.000000 0.000000
vn 0.000000 1.000000 0.000000
vn 0.000000 1.000000 0.000000
vn 0.000000 1.000000 0.000000
vn 0.000000 1.000000 0.000000
vn 0.000000 1.000000 0.000000
vn 0.000000 1.000000 0.000000
vn 0.000000 1.000000 0.000000
vn 0.000000 1.000000 0.000000
vn 0.000000 -1.000000 0.000000
vn 0.000000 -1.000000 0.000000
vn 0.000000 -1.000000 0.000000
vn 0.000000 -1.000000 0.000000
vn 0.000000 -1.000000 0.000000
vn 0.000000 -1.000000 0.000000
vn 0.000000 -1.000000 0.000000
vn 0.000000 -1.000000 0.000000
vn 0.000000 -1.000000 0.000000
vn 0.000000 -1.000000 0.000000
vn 0.000000 -1.000000 0.000000
vn 0.000000 -1.000000 0.000000
vn 0.955811 -0.210294 0.205432
vn 0.959185 -0.210294 0.189054
vn 0.959445 -0.198877 0.199781
vn 0.962056 -0.196193 0.189620
vn 0.961651 -0.187434 0.200240
vn 0.964726 -0.182064 0.190146
vn 0.963725 -0.175970 0.200672
vn 0.967195 -0.167910 0.190633
vn 0.965667 -0.164484 0.201077
vn 0.969461 -0.153733 0.191079
vn 0.967478 -0.152980 0.201454
vn 0.969157 -0.141459 0.201803
vn 0.965269 -0.152980 0.211784
vn 0.966944 -0.141459 0.212152
vn 0.962950 -0.152980 0.222092
vn 0.964621 -0.141459 0.222477
vn 0.960520 -0.152980 0.232374
vn 0.962187 -0.141459 0.232778
vn 0.957981 -0.152980 0.242630
vn 0.959643 -0.141459 0.243051
vn 0.955332 -0.152980 0.252858
vn 0.956990 -0.141459 0.253297
vn 0.952575 -0.152980 0.263056
vn 0.954228 -0.141459 0.263512
vn 0.949597 -0.153733 0.273189
vn 0.951619 -0.139534 0.273771
vn 0.955751 -0.129924 0.263933
vn 0.953445 -0.125316 0.274297
vn 0.957143 -0.118375 0.264318
vn 0.955073 -0.111081 0.274765
vn 0.958411 -0.106773 0.264667
vn 0.956505 -0.096830 0.275177
vn 0.959546 -0.095161 0.264981
vn 0.957739 -0.082566 0.275532
vn 0.960551 -0.083543 0.265259
vn 0.961425 -0.071919 0.265500
vn 0.964208 -0.071919 0.255207
vn 0.964952 -0.060293 0.255404
vn 0.967628 -0.060293 0.245074
vn 0.968243 -0.048666 0.245229
vn 0.970809 -0.048666 0.234863
vn 0.971294 -0.037040 0.234981
vn 0.973751 -0.037040 0.224583
vn 0.973622 -0.025418 0.226748
vn 0.976096 -0.037040 0.214160
vn 0.977357 -0.025418 0.210063
vn 0.978330 -0.037040 0.203713
vn 0.980807 -0.025418 0.193316
vn 0.980350 -0.039715 0.193226
vn 0.977841 -0.048666 0.203612
vn 0.979692 -0.054007 0.193096
vn 0.977220 -0.060293 0.203482
vn 0.978834 -0.068291 0.192927
vn 0.976466 -0.071919 0.203325
vn 0.977774 -0.082566 0.192718
vn 0.975579 -0.083543 0.203141
vn 0.974559 -0.095161 0.202928
vn 0.972334 -0.095161 0.213334
vn 0.971183 -0.106773 0.213082
vn 0.968849 -0.106773 0.223452
vn 0.967568 -0.118375 0.223157
vn 0.965127 -0.118375 0.233489
vn 0.963723 -0.129924 0.233149
vn 0.961175 -0.129924 0.243439
vn 0.971526 -0.139534 0.191486
vn 0.970703 -0.129924 0.202125
vn 0.968487 -0.129924 0.212490
vn 0.966160 -0.129924 0.222832
vn 0.973390 -0.125316 0.191854
vn 0.972118 -0.118375 0.202420
vn 0.969899 -0.118375 0.212800
vn 0.975052 -0.111081 0.192181
vn 0.973405 -0.106773 0.202688
vn 0.976514 -0.096830 0.192470
vn 0.969601 -0.025418 0.243367
vn 0.968726 -0.037040 0.245352
vn 0.965566 -0.048666 0.255567
vn 0.962167 -0.060293 0.265705
vn 0.958777 -0.068291 0.275831
vn 0.966048 -0.037040 0.255694
vn 0.965297 -0.025418 0.259915
vn 0.963259 -0.037040 0.266006
vn 0.960710 -0.025418 0.276387
vn 0.960263 -0.039715 0.276258
vn 0.962779 -0.048666 0.265874
vn 0.959618 -0.054007 0.276073
vn 0.950792 -0.164484 0.262564
vn 0.947376 -0.167910 0.272551
vn 0.948879 -0.175970 0.262035
vn 0.944959 -0.182064 0.271855
vn 0.946837 -0.187434 0.261471
vn 0.942344 -0.196193 0.271103
vn 0.944666 -0.198877 0.260872
vn 0.939531 -0.210294 0.270294
vn 0.944016 -0.210294 0.254185
vn 0.947401 -0.198877 0.250759
vn 0.948225 -0.210294 0.238002
vn 0.950027 -0.198877 0.240616
vn 0.952546 -0.198877 0.230445
vn 0.954735 -0.187434 0.230975
vn 0.957150 -0.187434 0.220754
vn 0.959214 -0.175970 0.221230
vn 0.961525 -0.175970 0.210963
vn 0.963463 -0.164484 0.211388
vn 0.952157 -0.210294 0.221749
vn 0.954955 -0.198877 0.220248
vn 0.959455 -0.187434 0.210509
vn 0.957255 -0.198877 0.210026
vn 0.975609 -0.048666 0.214053
vn 0.973265 -0.048666 0.224471
vn 0.974989 -0.060293 0.213917
vn 0.972647 -0.060293 0.224328
vn 0.970193 -0.060293 0.234714
vn 0.974237 -0.071919 0.213752
vn 0.971896 -0.071919 0.224155
vn 0.969444 -0.071919 0.234533
vn 0.966881 -0.071919 0.244885
vn 0.973352 -0.083543 0.213558
vn 0.971013 -0.083543 0.223951
vn 0.968563 -0.083543 0.234320
vn 0.966003 -0.083543 0.244662
vn 0.963332 -0.083543 0.254975
vn 0.969997 -0.095161 0.223717
vn 0.966405 -0.106773 0.233798
vn 0.962576 -0.118375 0.243794
vn 0.958517 -0.129924 0.253701
vn 0.961148 -0.164484 0.221676
vn 0.958723 -0.164484 0.231939
vn 0.956188 -0.164484 0.242176
vn 0.953544 -0.164484 0.252385
vn 0.967550 -0.095161 0.234075
vn 0.964992 -0.095161 0.244406
vn 0.962324 -0.095161 0.254709
vn 0.963850 -0.106773 0.244117
vn 0.959914 -0.118375 0.254071
vn 0.956794 -0.175970 0.231473
vn 0.952211 -0.187434 0.241169
vn 0.954265 -0.175970 0.241689
vn 0.951626 -0.175970 0.251877
vn 0.961185 -0.106773 0.254407
vn 0.949578 -0.187434 0.251335
vn 0.276476 -0.000000 -0.961021
vn 0.276476 -0.000000 -0.961021
vn 0.276476 -0.000000 -0.961021
vn 0.276476 -0.000000 -0.961021
vn 0.276476 -0.000000 -0.961021
vn 0.276476 -0.000000 -0.961021
vn 0.276476 -0.000000 -0.961021
vn 0.276476 -0.000000 -0.961021
vn 0.276476 -0.000000 -0.961021
vn 0.276476 -0.000000 -0.961021
vn 0.276476 -0.000000 -0.961021
vn 0.276476 -0.000000 -0.961021
vn 0.276476 -0.000000 -0.961021
vn 0.276476 -0.000000 -0.961021
vn 0.276476 -0.000000 -0.961021
vn 0.276476 -0.000000 -0.961021
vn 0.276476 -0.000000 -0.961021
vn 0.276476 -0.000000 -0.961021
vn 0.276476 -0.000000 -0.961021
vn 0.276476 -0.000000 -0.961021
vn 0.276476 -0.000000 -0.961021
vn 0.276476 -0.000000 -0.961021
vn 0.276476 -0.000000 -0.961021
vn 0.276476 -0.000000 -0.961021
vn 0.276476 -0.000000 -0.961021
vn 0.276476 -0.000000 -0.961021
vn 0.276476 -0.000000 -0.961021
vn -0.193378 0.000000 0.981124
vn -0.193378 0.000000 0.981124
vn -0.193378 0.000000 0.981124
vn -0.193378 0.000000 0.981124
vn -0.193378 0.000000 0.981124
vn -0.193378 0.000000 0.981124
vn -0.193378 0.000000 0.981124
vn -0.193378 0.000000 0.981124
vn -0.193378 0.000000 0.981124
vn -0.193378 0.000000 0.981124
vn -0.193378 0.000000 0.981124
vn -0.193378 0.000000 0.981124
vn -0.193378 0.000000 0.981124
vn -0.193378 0.000000 0.981124
vn -0.193378 0.000000 0.981124
vn -0.193378 0.000000 0.981124
vn -0.193378 0.000000 0.981124
vn -0.193378 0.000000 0.981124
vn -0.193378 0.000000 0.981124
vn -0.193378 0.000000 0.981124
vn -0.193378 0.000000 0.981124
vn -0.193378 0.000000 0.981124
vn -0.193378 0.000000 0.981124
vn -0.193378 0.000000 0.981124
vn -0.193378 0.000000 0.981124
vn -0.193378 0.000000 0.981124
vn -0.193378 0.000000 0.981124
usemtl Aluminum_-_Anodized_Glossy_(Blue)
f 34/1/1 1/2/2 39/3/3
f 39/3/3 1/2/2 2/4/4
f 39/3/3 2/4/4 36/5/5
f 36/5/5 2/4/4 3/6/6
f 36/5/5 3/6/6 96/7/7
f 96/7/7 3/6/6 67/8/8
f 96/7/7 67/8/8 68/9/9
f 68/9/9 67/8/8 98/10/10
f 68/9/9 98/10/10 99/11/11
f 99/11/11 98/10/10 138/12/12
f 99/11/11 138/12/12 137/13/13
f 137/13/13 138/12/12 115/14/14
f 137/13/13 115/14/14 116/15/15
f 116/15/15 115/14/14 9/16/16
f 116/15/15 9/16/16 10/17/17
f 3/6/6 4/18/18 67/8/8
f 67/8/8 4/18/18 97/19/19
f 67/8/8 97/19/19 98/10/10
f 98/10/10 97/19/19 139/20/20
f 98/10/10 139/20/20 138/12/12
f 138/12/12 139/20/20 114/21/21
f 138/12/12 114/21/21 115/14/14
f 115/14/14 114/21/21 9/16/16
f 97/19/19 4/18/18 38/22/22
f 38/22/22 4/18/18 5/23/23
f 38/22/22 5/23/23 112/24/24
f 112/24/24 5/23/23 6/25/25
f 112/24/24 6/25/25 7/26/26
f 112/24/24 7/26/26 113/27/27
f 113/27/27 7/26/26 8/28/28
f 113/27/27 8/28/28 114/21/21
f 114/21/21 8/28/28 9/16/16
f 116/15/15 10/17/17 117/29/29
f 117/29/29 10/17/17 11/30/30
f 117/29/29 11/30/30 118/31/31
f 118/31/31 11/30/30 12/32/32
f 118/31/31 12/32/32 119/33/33
f 119/33/33 12/32/32 120/34/34
f 119/33/33 120/34/34 133/35/35
f 133/35/35 120/34/34 132/36/36
f 133/35/35 132/36/36 104/37/37
f 104/37/37 132/36/36 105/38/38
f 104/37/37 105/38/38 74/39/39
f 74/39/39 105/38/38 75/40/40
f 74/39/39 75/40/40 89/41/41
f 89/41/41 75/40/40 88/42/42
f 89/41/41 88/42/42 60/43/43
f 60/43/43 88/42/42 61/44/44
f 60/43/43 61/44/44 46/45/45
f 46/45/45 61/44/44 47/46/46
f 46/45/45 47/46/46 29/47/47
f 29/47/47 47/46/46 28/48/48
f 28/48/48 47/46/46 48/49/49
f 28/48/48 48/49/49 27/50/50
f 27/50/50 48/49/49 49/51/51
f 27/50/50 49/51/51 26/52/52
f 26/52/52 49/51/51 50/53/53
f 26/52/52 50/53/53 51/54/54
f 51/54/54 50/53/53 65/55/55
f 51/54/54 65/55/55 66/56/56
f 66/56/56 65/55/55 83/57/57
f 66/56/56 83/57/57 82/58/58
f 82/58/58 83/57/57 81/59/59
f 82/58/58 81/59/59 21/60/60
f 21/60/60 81/59/59 20/61/61
f 20/61/61 81/59/59 111/62/62
f 20/61/61 111/62/62 37/63/63
f 37/63/63 111/62/62 110/64/64
f 37/63/63 110/64/64 127/65/65
f 127/65/65 110/64/64 109/66/66
f 127/65/65 109/66/66 128/67/67
f 128/67/67 109/66/66 108/68/68
f 128/67/67 108/68/68 129/69/69
f 129/69/69 108/68/68 107/70/70
f 129/69/69 107/70/70 130/71/71
f 130/71/71 107/70/70 106/72/72
f 130/71/71 106/72/72 131/73/73
f 131/73/73 106/72/72 105/38/38
f 131/73/73 105/38/38 132/36/36
f 12/32/32 13/74/74 120/34/34
f 120/34/34 13/74/74 121/75/75
f 120/34/34 121/75/75 132/36/36
f 132/36/36 121/75/75 131/73/73
f 13/74/74 14/76/76 121/75/75
f 121/75/75 14/76/76 122/77/77
f 121/75/75 122/77/77 131/73/73
f 131/73/73 122/77/77 130/71/71
f 14/76/76 15/78/78 122/77/77
f 122/77/77 15/78/78 123/79/79
f 122/77/77 123/79/79 130/71/71
f 130/71/71 123/79/79 129/69/69
f 123/79/79 15/78/78 124/80/80
f 124/80/80 15/78/78 16/81/81
f 124/80/80 16/81/81 125/82/82
f 125/82/82 16/81/81 17/83/83
f 125/82/82 17/83/83 126/84/84
f 126/84/84 17/83/83 18/85/85
f 126/84/84 18/85/85 19/86/86
f 126/84/84 19/86/86 37/63/63
f 37/63/63 19/86/86 20/61/61
f 82/58/58 21/60/60 35/87/87
f 35/87/87 21/60/60 22/88/88
f 35/87/87 22/88/88 53/89/89
f 53/89/89 22/88/88 23/90/90
f 53/89/89 23/90/90 24/91/91
f 53/89/89 24/91/91 52/92/92
f 52/92/92 24/91/91 25/93/93
f 52/92/92 25/93/93 51/54/54
f 51/54/54 25/93/93 26/52/52
f 46/45/45 29/47/47 45/94/94
f 45/94/94 29/47/47 30/95/95
f 45/94/94 30/95/95 44/96/96
f 44/96/96 30/95/95 31/97/97
f 44/96/96 31/97/97 43/98/98
f 43/98/98 31/97/97 32/99/99
f 43/98/98 32/99/99 42/100/100
f 42/100/100 32/99/99 41/101/101
f 42/100/100 41/101/101 56/102/102
f 56/102/102 41/101/101 55/103/103
f 56/102/102 55/103/103 93/104/104
f 93/104/104 55/103/103 94/105/105
f 93/104/104 94/105/105 70/106/106
f 70/106/106 94/105/105 69/107/107
f 70/106/106 69/107/107 100/108/108
f 100/108/108 69/107/107 99/11/11
f 100/108/108 99/11/11 137/13/13
f 32/99/99 33/109/109 41/101/101
f 41/101/101 33/109/109 40/110/110
f 41/101/101 40/110/110 55/103/103
f 55/103/103 40/110/110 54/111/111
f 55/103/103 54/111/111 94/105/105
f 94/105/105 54/111/111 95/112/112
f 94/105/105 95/112/112 69/107/107
f 69/107/107 95/112/112 68/9/9
f 69/107/107 68/9/9 99/11/11
f 33/109/109 34/1/1 40/110/110
f 40/110/110 34/1/1 39/3/3
f 40/110/110 39/3/3 54/111/111
f 54/111/111 39/3/3 36/5/5
f 54/111/111 36/5/5 95/112/112
f 95/112/112 36/5/5 96/7/7
f 95/112/112 96/7/7 68/9/9
f 43/98/98 42/100/100 57/113/113
f 57/113/113 42/100/100 56/102/102
f 57/113/113 56/102/102 92/114/114
f 92/114/114 56/102/102 93/104/104
f 92/114/114 93/104/104 71/115/115
f 71/115/115 93/104/104 70/106/106
f 71/115/115 70/106/106 101/116/116
f 101/116/116 70/106/106 100/108/108
f 101/116/116 100/108/108 136/117/117
f 136/117/117 100/108/108 137/13/13
f 136/117/117 137/13/13 116/15/15
f 44/96/96 43/98/98 58/118/118
f 58/118/118 43/98/98 57/113/113
f 58/118/118 57/113/113 91/119/119
f 91/119/119 57/113/113 92/114/114
f 91/119/119 92/114/114 72/120/120
f 72/120/120 92/114/114 71/115/115
f 72/120/120 71/115/115 102/121/121
f 102/121/121 71/115/115 101/116/116
f 102/121/121 101/116/116 135/122/122
f 135/122/122 101/116/116 136/117/117
f 135/122/122 136/117/117 117/29/29
f 117/29/29 136/117/117 116/15/15
f 60/43/43 46/45/45 45/94/94
f 45/94/94 44/96/96 59/123/123
f 59/123/123 44/96/96 58/118/118
f 59/123/123 58/118/118 90/124/124
f 90/124/124 58/118/118 91/119/119
f 90/124/124 91/119/119 73/125/125
f 73/125/125 91/119/119 72/120/120
f 73/125/125 72/120/120 103/126/126
f 103/126/126 72/120/120 102/121/121
f 103/126/126 102/121/121 134/127/127
f 134/127/127 102/121/121 135/122/122
f 134/127/127 135/122/122 118/31/31
f 118/31/31 135/122/122 117/29/29
f 48/49/49 47/46/46 62/128/128
f 62/128/128 47/46/46 61/44/44
f 62/128/128 61/44/44 87/129/129
f 87/129/129 61/44/44 88/42/42
f 87/129/129 88/42/42 76/130/130
f 76/130/130 88/42/42 75/40/40
f 76/130/130 75/40/40 106/72/72
f 106/72/72 75/40/40 105/38/38
f 49/51/51 48/49/49 63/131/131
f 63/131/131 48/49/49 62/128/128
f 63/131/131 62/128/128 86/132/132
f 86/132/132 62/128/128 87/129/129
f 86/132/132 87/129/129 77/133/133
f 77/133/133 87/129/129 76/130/130
f 77/133/133 76/130/130 107/70/70
f 107/70/70 76/130/130 106/72/72
f 50/53/53 49/51/51 64/134/134
f 64/134/134 49/51/51 63/131/131
f 64/134/134 63/131/131 85/135/135
f 85/135/135 63/131/131 86/132/132
f 85/135/135 86/132/132 78/136/136
f 78/136/136 86/132/132 77/133/133
f 78/136/136 77/133/133 108/68/68
f 108/68/68 77/133/133 107/70/70
f 35/87/87 53/89/89 52/92/92
f 35/87/87 52/92/92 66/56/56
f 66/56/56 52/92/92 51/54/54
f 89/41/41 60/43/43 59/123/123
f 59/123/123 60/43/43 45/94/94
f 89/41/41 59/123/123 90/124/124
f 50/53/53 64/134/134 65/55/55
f 65/55/55 64/134/134 84/137/137
f 65/55/55 84/137/137 83/57/57
f 83/57/57 84/137/137 80/138/138
f 83/57/57 80/138/138 81/59/59
f 81/59/59 80/138/138 111/62/62
f 84/137/137 64/134/134 85/135/135
f 82/58/58 35/87/87 66/56/56
f 89/41/41 90/124/124 74/39/39
f 74/39/39 90/124/124 73/125/125
f 74/39/39 73/125/125 104/37/37
f 104/37/37 73/125/125 103/126/126
f 104/37/37 103/126/126 133/35/35
f 133/35/35 103/126/126 134/127/127
f 133/35/35 134/127/127 119/33/33
f 119/33/33 134/127/127 118/31/31
f 84/137/137 85/135/135 79/139/139
f 79/139/139 85/135/135 78/136/136
f 79/139/139 78/136/136 109/66/66
f 109/66/66 78/136/136 108/68/68
f 84/137/137 79/139/139 80/138/138
f 80/138/138 79/139/139 110/64/64
f 80/138/138 110/64/64 111/62/62
f 110/64/64 79/139/139 109/66/66
f 112/24/24 113/27/27 38/22/22
f 38/22/22 113/27/27 139/20/20
f 38/22/22 139/20/20 97/19/19
f 113/27/27 114/21/21 139/20/20
f 128/67/67 129/69/69 124/80/80
f 124/80/80 129/69/69 123/79/79
f 127/65/65 128/67/67 125/82/82
f 125/82/82 128/67/67 124/80/80
f 37/63/63 127/65/65 126/84/84
f 126/84/84 127/65/65 125/82/82
f 145/140/140 23/141/141 144/142/142
f 144/142/142 23/141/141 22/143/143
f 144/142/142 22/143/143 143/144/144
f 143/144/144 22/143/143 21/145/145
f 143/144/144 21/145/145 142/146/146
f 142/146/146 21/145/145 20/147/147
f 142/146/146 20/147/147 141/148/148
f 141/148/148 20/147/147 19/149/149
f 141/148/148 19/149/149 140/150/150
f 140/150/150 19/149/149 18/151/151
f 146/152/152 147/153/153 1/154/154
f 1/154/154 147/153/153 2/155/155
f 2/155/155 147/153/153 148/156/156
f 2/155/155 148/156/156 3/157/157
f 3/157/157 148/156/156 149/158/158
f 3/157/157 149/158/158 4/159/159
f 4/159/159 149/158/158 150/160/160
f 4/159/159 150/160/160 5/161/161
f 5/161/161 150/160/160 151/162/162
f 5/161/161 151/162/162 6/163/163
f 141/164/164 140/165/165 194/166/166
f 194/166/166 140/165/165 152/167/167
f 194/166/166 152/167/167 193/168/168
f 193/168/168 152/167/167 153/169/169
f 193/168/168 153/169/169 192/170/170
f 192/170/170 153/169/169 154/171/171
f 192/170/170 154/171/171 191/172/172
f 191/172/172 154/171/171 155/173/173
f 191/172/172 155/173/173 190/174/174
f 190/174/174 155/173/173 189/175/175
f 190/174/174 189/175/175 204/176/176
f 204/176/176 189/175/175 203/177/177
f 204/176/176 203/177/177 227/178/178
f 227/178/178 203/177/177 228/179/179
f 227/178/178 228/179/179 218/180/180
f 218/180/180 228/179/179 217/181/181
f 218/180/180 217/181/181 248/182/182
f 248/182/182 217/181/181 247/183/183
f 248/182/182 247/183/183 271/184/184
f 271/184/184 247/183/183 272/185/185
f 271/184/184 272/185/185 263/186/186
f 263/186/186 272/185/185 262/187/187
f 263/186/186 262/187/187 172/188/188
f 172/188/188 262/187/187 171/189/189
f 171/189/189 262/187/187 261/190/190
f 171/189/189 261/190/190 170/191/191
f 170/191/191 261/190/190 260/192/192
f 170/191/191 260/192/192 169/193/193
f 169/193/193 260/192/192 259/194/194
f 169/193/193 259/194/194 168/195/195
f 168/195/195 259/194/194 258/196/196
f 168/195/195 258/196/196 167/197/197
f 167/197/197 258/196/196 257/198/198
f 167/197/197 257/198/198 256/199/199
f 256/199/199 257/198/198 278/200/200
f 256/199/199 278/200/200 279/201/201
f 279/201/201 278/200/200 240/202/202
f 279/201/201 240/202/202 239/203/203
f 239/203/203 240/202/202 209/204/204
f 239/203/203 209/204/204 208/205/205
f 208/205/205 209/204/204 237/206/206
f 208/205/205 237/206/206 149/207/207
f 149/207/207 237/206/206 178/208/208
f 149/207/207 178/208/208 150/209/209
f 150/209/209 178/208/208 180/210/210
f 150/209/209 180/210/210 151/211/211
f 151/211/211 180/210/210 163/212/212
f 163/212/212 180/210/210 181/213/213
f 163/212/212 181/213/213 162/214/214
f 162/214/214 181/213/213 182/215/215
f 162/214/214 182/215/215 161/216/216
f 161/216/216 182/215/215 183/217/217
f 161/216/216 183/217/217 160/218/218
f 160/218/218 183/217/217 184/219/219
f 160/218/218 184/219/219 185/220/220
f 185/220/220 184/219/219 199/221/221
f 185/220/220 199/221/221 200/222/222
f 200/222/222 199/221/221 231/223/223
f 200/222/222 231/223/223 230/224/224
f 230/224/224 231/223/223 215/225/225
f 230/224/224 215/225/225 216/226/226
f 216/226/226 215/225/225 246/227/227
f 216/226/226 246/227/227 247/183/183
f 247/183/183 246/227/227 272/185/185
f 155/173/173 156/228/228 189/175/175
f 189/175/175 156/228/228 188/229/229
f 189/175/175 188/229/229 203/177/177
f 203/177/177 188/229/229 202/230/230
f 203/177/177 202/230/230 228/179/179
f 228/179/179 202/230/230 229/231/231
f 228/179/179 229/231/231 217/181/181
f 217/181/181 229/231/231 216/226/226
f 217/181/181 216/226/226 247/183/183
f 156/228/228 157/232/232 188/229/229
f 188/229/229 157/232/232 187/233/233
f 188/229/229 187/233/233 202/230/230
f 202/230/230 187/233/233 201/234/234
f 202/230/230 201/234/234 229/231/231
f 229/231/231 201/234/234 230/224/224
f 229/231/231 230/224/224 216/226/226
f 157/232/232 158/235/235 187/233/233
f 187/233/233 158/235/235 186/236/236
f 187/233/233 186/236/236 201/234/234
f 201/234/234 186/236/236 200/222/222
f 201/234/234 200/222/222 230/224/224
f 158/235/235 159/237/237 186/236/236
f 186/236/236 159/237/237 185/220/220
f 186/236/236 185/220/220 200/222/222
f 159/237/237 160/218/218 185/220/220
f 149/207/207 148/238/238 208/205/205
f 208/205/205 148/238/238 238/239/239
f 208/205/205 238/239/239 239/203/203
f 239/203/203 238/239/239 280/240/240
f 239/203/203 280/240/240 279/201/201
f 279/201/201 280/240/240 255/241/241
f 279/201/201 255/241/241 256/199/199
f 256/199/199 255/241/241 166/242/242
f 256/199/199 166/242/242 167/197/197
f 238/239/239 148/238/238 176/243/243
f 176/243/243 148/238/238 147/244/244
f 176/243/243 147/244/244 253/245/245
f 253/245/245 147/244/244 146/246/246
f 253/245/245 146/246/246 164/247/247
f 253/245/245 164/247/247 254/248/248
f 254/248/248 164/247/247 165/249/249
f 254/248/248 165/249/249 255/241/241
f 255/241/241 165/249/249 166/242/242
f 263/186/186 172/188/188 264/250/250
f 264/250/250 172/188/188 173/251/251
f 264/250/250 173/251/251 265/252/252
f 265/252/252 173/251/251 174/253/253
f 265/252/252 174/253/253 266/254/254
f 266/254/254 174/253/253 175/255/255
f 266/254/254 175/255/255 267/256/256
f 267/256/256 175/255/255 145/257/257
f 267/256/256 145/257/257 144/258/258
f 267/256/256 144/258/258 177/259/259
f 177/259/259 144/258/258 143/260/260
f 177/259/259 143/260/260 252/261/261
f 252/261/261 143/260/260 222/262/262
f 252/261/261 222/262/262 221/263/263
f 221/263/263 222/262/262 224/264/264
f 221/263/263 224/264/264 225/265/265
f 225/265/265 224/264/264 206/266/266
f 225/265/265 206/266/266 205/267/267
f 205/267/267 206/266/266 191/172/172
f 205/267/267 191/172/172 190/174/174
f 143/260/260 142/268/268 222/262/262
f 222/262/262 142/268/268 223/269/269
f 222/262/262 223/269/269 224/264/264
f 224/264/264 223/269/269 207/270/270
f 224/264/264 207/270/270 206/266/266
f 206/266/266 207/270/270 192/170/170
f 206/266/266 192/170/170 191/172/172
f 223/269/269 142/268/268 179/271/271
f 179/271/271 142/268/268 141/164/164
f 179/271/271 141/164/164 194/166/166
f 181/213/213 180/210/210 195/272/272
f 195/272/272 180/210/210 178/208/208
f 195/272/272 178/208/208 236/273/273
f 236/273/273 178/208/208 237/206/206
f 236/273/273 237/206/206 209/204/204
f 182/215/215 181/213/213 196/274/274
f 196/274/274 181/213/213 195/272/272
f 196/274/274 195/272/272 235/275/275
f 235/275/275 195/272/272 236/273/273
f 235/275/275 236/273/273 210/276/276
f 210/276/276 236/273/273 209/204/204
f 210/276/276 209/204/204 240/202/202
f 183/217/217 182/215/215 197/277/277
f 197/277/277 182/215/215 196/274/274
f 197/277/277 196/274/274 234/278/278
f 234/278/278 196/274/274 235/275/275
f 234/278/278 235/275/275 211/279/279
f 211/279/279 235/275/275 210/276/276
f 211/279/279 210/276/276 241/280/280
f 241/280/280 210/276/276 240/202/202
f 241/280/280 240/202/202 278/200/200
f 184/219/219 183/217/217 198/281/281
f 198/281/281 183/217/217 197/277/277
f 198/281/281 197/277/277 233/282/282
f 233/282/282 197/277/277 234/278/278
f 233/282/282 234/278/278 212/283/283
f 212/283/283 234/278/278 211/279/279
f 212/283/283 211/279/279 242/284/284
f 242/284/284 211/279/279 241/280/280
f 242/284/284 241/280/280 277/285/285
f 277/285/285 241/280/280 278/200/200
f 277/285/285 278/200/200 257/198/198
f 205/267/267 190/174/174 204/176/176
f 179/271/271 194/166/166 193/168/168
f 179/271/271 193/168/168 207/270/270
f 207/270/270 193/168/168 192/170/170
f 184/219/219 198/281/281 199/221/221
f 199/221/221 198/281/281 232/286/286
f 199/221/221 232/286/286 231/223/223
f 231/223/223 232/286/286 214/287/287
f 231/223/223 214/287/287 215/225/225
f 215/225/225 214/287/287 245/288/288
f 215/225/225 245/288/288 246/227/227
f 246/227/227 245/288/288 273/289/289
f 246/227/227 273/289/289 272/185/185
f 272/185/185 273/289/289 262/187/187
f 232/286/286 198/281/281 233/282/282
f 205/267/267 204/176/176 226/290/290
f 226/290/290 204/176/176 227/178/178
f 226/290/290 227/178/178 219/291/291
f 219/291/291 227/178/178 218/180/180
f 219/291/291 218/180/180 249/292/292
f 249/292/292 218/180/180 248/182/182
f 249/292/292 248/182/182 270/293/293
f 270/293/293 248/182/182 271/184/184
f 270/293/293 271/184/184 264/250/250
f 264/250/250 271/184/184 263/186/186
f 223/269/269 179/271/271 207/270/270
f 232/286/286 233/282/282 213/294/294
f 213/294/294 233/282/282 212/283/283
f 213/294/294 212/283/283 243/295/295
f 243/295/295 212/283/283 242/284/284
f 243/295/295 242/284/284 276/296/296
f 276/296/296 242/284/284 277/285/285
f 276/296/296 277/285/285 258/196/196
f 258/196/196 277/285/285 257/198/198
f 232/286/286 213/294/294 214/287/287
f 214/287/287 213/294/294 244/297/297
f 214/287/287 244/297/297 245/288/288
f 245/288/288 244/297/297 274/298/298
f 245/288/288 274/298/298 273/289/289
f 273/289/289 274/298/298 261/190/190
f 273/289/289 261/190/190 262/187/187
f 244/297/297 213/294/294 243/295/295
f 219/291/291 220/299/299 226/290/290
f 226/290/290 220/299/299 225/265/265
f 226/290/290 225/265/265 205/267/267
f 225/265/265 220/299/299 221/263/263
f 221/263/263 220/299/299 251/300/300
f 221/263/263 251/300/300 252/261/261
f 252/261/261 251/300/300 177/259/259
f 220/299/299 219/291/291 250/301/301
f 250/301/301 219/291/291 249/292/292
f 250/301/301 249/292/292 269/302/302
f 269/302/302 249/292/292 270/293/293
f 269/302/302 270/293/293 265/252/252
f 265/252/252 270/293/293 264/250/250
f 244/297/297 243/295/295 275/303/303
f 275/303/303 243/295/295 276/296/296
f 275/303/303 276/296/296 259/194/194
f 259/194/194 276/296/296 258/196/196
f 220/299/299 250/301/301 251/300/300
f 251/300/300 250/301/301 268/304/304
f 251/300/300 268/304/304 177/259/259
f 177/259/259 268/304/304 267/256/256
f 268/304/304 250/301/301 269/302/302
f 253/245/245 254/248/248 176/243/243
f 176/243/243 254/248/248 280/240/240
f 176/243/243 280/240/240 238/239/239
f 254/248/248 255/241/241 280/240/240
f 259/194/194 260/192/192 275/303/303
f 275/303/303 260/192/192 274/298/298
f 275/303/303 274/298/298 244/297/297
f 260/192/192 261/190/190 274/298/298
f 268/304/304 269/302/302 266/254/254
f 266/254/254 269/302/302 265/252/252
f 266/254/254 267/256/256 268/304/304
f 145/305/305 175/306/306 23/307/307
f 23/307/307 175/306/306 174/308/308
f 23/307/307 174/308/308 24/309/309
f 24/309/309 174/308/308 173/310/310
f 24/309/309 173/310/310 25/311/311
f 25/311/311 173/310/310 172/312/312
f 25/311/311 172/312/312 26/313/313
f 26/313/313 172/312/312 171/314/314
f 26/313/313 171/314/314 27/315/315
f 27/315/315 171/314/314 170/316/316
f 27/315/315 170/316/316 28/317/317
f 28/317/317 170/316/316 169/318/318
f 28/317/317 169/318/318 29/319/319
f 29/319/319 169/318/318 168/320/320
f 29/319/319 168/320/320 30/321/321
f 30/321/321 168/320/320 167/322/322
f 30/321/321 167/322/322 31/323/323
f 31/323/323 167/322/322 166/324/324
f 31/323/323 166/324/324 32/325/325
f 32/325/325 166/324/324 165/326/326
f 32/325/325 165/326/326 33/327/327
f 33/327/327 165/326/326 164/328/328
f 33/327/327 164/328/328 34/329/329
f 34/329/329 164/328/328 146/330/330
f 34/329/329 146/330/330 1/331/331
f 17/332/332 153/333/333 18/334/334
f 18/334/334 153/333/333 152/335/335
f 18/334/334 152/335/335 140/336/336
f 153/333/333 17/332/332 154/337/337
f 154/337/337 17/332/332 16/338/338
f 154/337/337 16/338/338 155/339/339
f 155/339/339 16/338/338 15/340/340
f 155/339/339 15/340/340 156/341/341
f 156/341/341 15/340/340 14/342/342
f 156/341/341 14/342/342 157/343/343
f 157/343/343 14/342/342 13/344/344
f 157/343/343 13/344/344 158/345/345
f 158/345/345 13/344/344 12/346/346
f 158/345/345 12/346/346 159/347/347
f 159/347/347 12/346/346 11/348/348
f 159/347/347 11/348/348 160/349/349
f 160/349/349 11/348/348 10/350/350
f 160/349/349 10/350/350 161/351/351
f 161/351/351 10/350/350 9/352/352
f 161/351/351 9/352/352 162/353/353
f 162/353/353 9/352/352 8/354/354
f 162/353/353 8/354/354 163/355/355
f 163/355/355 8/354/354 7/356/356
f 163/355/355 7/356/356 151/357/357
f 151/357/357 7/356/356 6/358/358
# 280 vertices
# 358 texture params
# 358 normals
# 556 facets

# 1 groups
