# WaveFront *.obj file (generated by Autodesk ATF)

mtllib PP1.mtl

g Body1

v 4.265468 0.198943 4.491992
v 4.659188 0.765396 3.810049
v 5.064266 1.297881 3.108435
v 5.480267 1.795443 2.387899
v 5.906759 2.257127 1.649193
v 6.342797 2.681504 0.893953
v 6.787368 3.067286 0.123934
v 7.239942 3.413737 -0.659948
v 7.699991 3.720122 -1.456776
v 7.183430 3.720122 -1.876965
v 6.713324 3.720122 -2.348553
v 6.294762 3.720122 -2.866433
v 5.932274 3.720122 -3.425000
v 5.629785 3.720122 -4.018207
v 5.390569 3.720122 -4.639633
v 5.217215 3.720122 -5.282550
v 5.111600 3.720122 -5.940000
v 4.191503 3.413737 -5.940000
v 3.286354 3.067286 -5.940000
v 2.397212 2.681504 -5.940000
v 1.525136 2.257127 -5.940000
v 0.672153 1.795443 -5.940000
v -0.159851 1.297881 -5.940000
v -0.970006 0.765396 -5.940000
v -1.757445 0.198943 -5.940000
v -1.662726 0.198943 -4.902520
v -1.486791 0.198943 -3.875689
v -1.230726 0.198943 -2.865854
v -0.896115 0.198943 -1.879258
v -0.485026 0.198943 -0.922001
v 0.000000 0.198943 -0.000000
v 0.555964 0.198943 0.881045
v 1.179428 0.198943 1.715687
v 1.866539 0.198943 2.498767
v 2.613050 0.198943 3.225443
v 3.414344 0.198943 3.891223
v 7.110704 3.574224 -1.341673
v 2.721845 0.488906 2.791278
v 6.521326 3.574224 -1.889821
v 6.248770 3.574224 -2.192458
v 5.023110 3.574224 -4.315365
v -1.056395 0.488906 -3.752826
v 4.897296 3.574224 -4.702723
v -1.305156 0.488906 -5.227521
v 4.717275 3.574224 -5.487214
v 7.423704 3.574224 -1.098019
v 7.157385 3.418154 -0.734679
v 6.892531 3.251968 -0.373338
v 6.629315 3.075735 -0.014230
v 6.367907 2.889538 0.342411
v 6.108475 2.693471 0.696355
v 5.851186 2.487644 1.047375
v 5.596206 2.272175 1.395246
v 5.341457 2.045151 1.742802
v 5.089384 1.808598 2.086706
v 4.840146 1.562675 2.426742
v 4.593899 1.307555 2.762699
v 4.350793 1.043423 3.094369
v 4.110976 0.770471 3.421553
v 3.874588 0.488906 3.744058
v 6.809262 3.574224 -1.605876
v 6.502550 3.418154 -1.275922
v 6.197525 3.251968 -0.947783
v 5.894386 3.075735 -0.621673
v 5.593330 2.889538 -0.297803
v 5.294549 2.693471 0.023618
v 4.998238 2.487644 0.342384
v 4.704584 2.272175 0.658291
v 4.411196 2.045151 0.973910
v 4.120891 1.808598 1.286214
v 3.833851 1.562675 1.595006
v 3.550255 1.307555 1.900092
v 3.270277 1.043423 2.201286
v 2.994086 0.770471 2.498406
v 3.287375 0.488906 3.286944
v 3.542027 0.770471 2.978656
v 3.800374 1.043423 2.665896
v 4.062262 1.307555 2.348847
v 4.327535 1.562675 2.027701
v 4.596029 1.808598 1.702655
v 4.867578 2.045151 1.373912
v 5.142009 2.272175 1.041678
v 5.416691 2.487644 0.709142
v 5.693858 2.693471 0.373597
v 5.973334 2.889538 0.035256
v 6.254939 3.075735 -0.305663
v 6.538492 3.251968 -0.648939
v 6.823809 3.418154 -0.994350
v 5.905212 3.418154 -1.901066
v 5.563544 3.251968 -1.611277
v 5.223988 3.075735 -1.323279
v 4.886764 2.889538 -1.037259
v 4.552091 2.693471 -0.753402
v 4.220182 2.487644 -0.471890
v 3.891250 2.272175 -0.192904
v 3.562617 2.045151 0.085830
v 3.237437 1.808598 0.361635
v 2.915913 1.562675 0.634338
v 2.598248 1.307555 0.903769
v 2.284636 1.043423 1.169763
v 1.975265 0.770471 1.432159
v 1.670318 0.488906 1.690803
v 2.181654 0.488906 2.258575
v 2.470696 0.770471 1.982272
v 2.763932 1.043423 1.701961
v 3.061189 1.307555 1.417806
v 3.362287 1.562675 1.129979
v 3.667042 1.808598 0.838657
v 3.975263 2.045151 0.544020
v 4.286757 2.272175 0.246256
v 4.598534 2.487644 -0.051779
v 4.913133 2.693471 -0.352511
v 5.230352 2.889538 -0.655749
v 5.549989 3.075735 -0.961297
v 5.871836 3.251968 -1.268958
v 6.195685 3.418154 -1.578533
v 5.756705 3.574224 -2.848473
v 5.380798 3.418154 -2.600206
v 5.006960 3.251968 -2.353305
v 4.635433 3.075735 -2.107931
v 4.266457 2.889538 -1.864242
v 3.900272 2.693471 -1.622396
v 3.537112 2.487644 -1.382548
v 3.177210 2.272175 -1.144851
v 2.817634 2.045151 -0.907370
v 2.461835 1.808598 -0.672384
v 2.110039 1.562675 -0.440041
v 1.762464 1.307555 -0.210485
v 1.419323 1.043423 0.016142
v 1.080823 0.770471 0.239703
v 0.747164 0.488906 0.460067
v 1.191145 0.488906 1.090364
v 1.510995 0.770471 0.850396
v 1.835486 1.043423 0.606946
v 2.164425 1.307555 0.360158
v 2.497616 1.562675 0.110181
v 2.834853 1.808598 -0.142831
v 3.175926 2.045151 -0.398722
v 3.520620 2.272175 -0.657330
v 3.865627 2.487644 -0.916173
v 4.213757 2.693471 -1.177358
v 4.564788 2.889538 -1.440719
v 4.918492 3.075735 -1.706087
v 5.274643 3.251968 -1.973290
v 5.633009 3.418154 -2.242155
v 5.993359 3.574224 -2.512508
v 5.345202 3.574224 -3.561216
v 4.942243 3.418154 -3.359805
v 4.541502 3.251968 -3.159502
v 4.143238 3.075735 -2.960437
v 3.747710 2.889538 -2.762739
v 3.355172 2.693471 -2.566537
v 2.965878 2.487644 -2.371955
v 2.580075 2.272175 -2.179119
v 2.194622 2.045151 -1.986457
v 1.813219 1.808598 -1.795820
v 1.436106 1.562675 -1.607327
v 1.063517 1.307555 -1.421096
v 0.695682 1.043423 -1.237240
v 0.332822 0.770471 -1.055871
v -0.024848 0.488906 -0.877096
v 0.341065 0.488906 -0.196914
v 0.687355 0.770471 -0.396845
v 1.038669 1.043423 -0.599676
v 1.394800 1.307555 -0.805288
v 1.755533 1.562675 -1.013557
v 2.120646 1.808598 -1.224356
v 2.489914 2.045151 -1.437552
v 2.863101 2.272175 -1.653012
v 3.236628 2.487644 -1.868668
v 3.613536 2.693471 -2.086276
v 3.993583 2.889538 -2.305696
v 4.376526 3.075735 -2.526788
v 4.762117 3.251968 -2.749410
v 5.150107 3.418154 -2.973416
v 5.540244 3.574224 -3.198661
v 5.172575 3.574224 -3.934147
v 4.758268 3.418154 -3.757252
v 4.346241 3.251968 -3.581330
v 3.936761 3.075735 -3.406496
v 3.530093 2.889538 -3.232862
v 3.126501 2.693471 -3.060542
v 2.726243 2.487644 -2.889645
v 2.329575 2.272175 -2.720281
v 1.933267 2.045151 -2.551071
v 1.541122 1.808598 -2.383639
v 1.153388 1.562675 -2.218089
v 0.770307 1.307555 -2.054526
v 0.392112 1.043423 -1.893050
v 0.019033 0.770471 -1.733758
v -0.348710 0.488906 -1.576744
v 4.464892 3.418154 -4.576354
v 4.034868 3.251968 -4.450680
v 3.607502 3.075735 -4.325783
v 3.183071 2.889538 -4.201744
v 2.761850 2.693471 -4.078642
v 2.344109 2.487644 -3.956558
v 1.930115 2.272175 -3.835569
v 1.516496 2.045151 -3.714689
v 1.107223 1.808598 -3.595080
v 0.702553 1.562675 -3.476816
v 0.302739 1.307555 -3.359970
v -0.091975 1.043423 -3.244616
v -0.481350 0.770471 -3.130822
v -0.865156 0.488906 -3.018655
v -0.629119 0.488906 -2.291939
v -0.252654 0.770471 -2.426709
v 0.129273 1.043423 -2.563434
v 0.516437 1.307555 -2.702034
v 0.908604 1.562675 -2.842424
v 1.305533 1.808598 -2.984520
v 1.706978 2.045151 -3.128232
v 2.112684 2.272175 -3.273470
v 2.518760 2.487644 -3.418840
v 2.928511 2.693471 -3.565525
v 3.341675 2.889538 -3.713433
v 3.757987 3.075735 -3.862467
v 4.177178 3.251968 -4.012532
v 4.598977 3.418154 -4.163531
v 4.273037 3.418154 -5.412417
v 3.831244 3.251968 -5.338031
v 3.392181 3.075735 -5.264105
v 2.956134 2.889538 -5.190687
v 2.523385 2.693471 -5.117824
v 2.094210 2.487644 -5.045563
v 1.668885 2.272175 -4.973950
v 1.243947 2.045151 -4.902402
v 0.823472 1.808598 -4.831606
v 0.407727 1.562675 -4.761606
v -0.003030 1.307555 -4.692446
v -0.408546 1.043423 -4.624168
v -0.808578 0.770471 -4.556814
v -1.202889 0.488906 -4.490423
v -0.666640 0.770471 -3.842158
v -0.271231 1.043423 -3.932786
v 0.129599 1.307555 -4.024657
v 0.535610 1.562675 -4.117715
v 0.946551 1.808598 -4.211903
v 1.362167 2.045151 -4.307163
v 1.782195 2.272175 -4.403434
v 2.202606 2.487644 -4.499793
v 2.626821 2.693471 -4.597023
v 3.054570 2.889538 -4.695064
v 3.485578 3.075735 -4.793852
v 3.919567 3.251968 -4.893322
v 4.356256 3.418154 -4.993412
v 4.795361 3.574224 -5.094055
v -0.907664 0.770471 -5.270986
v -0.504405 1.043423 -5.315082
v -0.095618 1.307555 -5.359782
v 0.318452 1.562675 -5.405060
v 0.737551 1.808598 -5.450889
v 1.161418 2.045151 -5.497238
v 1.589784 2.272175 -5.544079
v 2.018540 2.487644 -5.590963
v 2.451177 2.693471 -5.638272
v 2.887417 2.889538 -5.685974
v 3.326981 3.075735 -5.734040
v 3.769586 3.251968 -5.782438
v 4.214943 3.418154 -5.831138
v 4.662765 3.574224 -5.880107
v 4.265468 -0.000000 4.491992
v -1.757445 -0.000000 -5.940000
v -1.662726 -0.000000 -4.902520
v -1.486791 -0.000000 -3.875689
v -1.230726 -0.000000 -2.865854
v -0.896115 -0.000000 -1.879258
v -0.485026 0.000000 -0.922001
v 0.000000 0.000000 -0.000000
v 0.555964 0.000000 0.881045
v 1.179428 0.000000 1.715687
v 1.866539 0.000000 2.498767
v 2.613050 0.000000 3.225443
v 3.414344 0.000000 3.891223
v 5.111600 3.553882 -5.940000
v 5.217215 3.553882 -5.282550
v 5.390569 3.553882 -4.639633
v 5.629785 3.553882 -4.018207
v 5.932274 3.553882 -3.425000
v 6.294762 3.553882 -2.866433
v 6.713324 3.553882 -2.348553
v 7.183430 3.553882 -1.876965
v 7.699991 3.553882 -1.456776
v 7.239389 3.244621 -0.658989
v 6.786398 2.894895 0.125613
v 6.341558 2.505463 0.896099
v 5.905406 2.077080 1.651538
v 5.478970 1.611070 2.390146
v 5.063209 1.108900 3.110265
v 4.658562 0.571550 3.811134
v -0.971258 0.571550 -5.940000
v -0.161964 1.108900 -5.940000
v 0.669558 1.611070 -5.940000
v 1.522429 2.077080 -5.940000
v 2.394735 2.505463 -5.940000
v 3.284415 2.894895 -5.940000
v 4.190395 3.244621 -5.940000
v 7.110442 3.406673 -1.341356
v 6.521028 3.406673 -1.889536
v 2.721445 0.292630 2.791707
v 6.248456 3.406673 -2.192192
v 5.022722 3.406673 -4.315226
v 4.896901 3.406673 -4.702608
v -1.056967 0.292630 -3.752694
v 4.716869 3.406673 -5.487146
v 4.662355 3.406673 -5.880062
v 4.214161 3.249188 -5.831052
v 3.768472 3.081485 -5.782317
v 3.325583 2.903634 -5.733887
v 2.885787 2.715721 -5.685796
v 2.449372 2.517842 -5.638074
v 2.016623 2.310109 -5.590754
v 1.587822 2.092645 -5.543865
v 1.159391 1.863470 -5.497016
v 0.735540 1.624677 -5.450669
v 0.316540 1.376431 -5.404851
v -0.097341 1.118909 -5.359594
v -0.505847 0.852300 -5.314924
v -0.908727 0.576803 -5.270870
v -1.305739 0.292630 -5.227457
v 4.794959 3.406673 -5.093963
v 4.355489 3.249188 -4.993236
v 3.918475 3.081485 -4.893072
v 3.484207 2.903634 -4.793537
v 3.052972 2.715721 -4.694698
v 2.625051 2.517842 -4.596618
v 2.200726 2.310109 -4.499362
v 1.780272 2.092645 -4.402993
v 1.360180 1.863470 -4.306708
v 0.944578 1.624677 -4.211451
v 0.533735 1.376431 -4.117285
v 0.127910 1.118909 -4.024270
v -0.272645 0.852300 -3.932462
v -0.667682 0.576803 -3.841919
v -1.203468 0.292630 -4.490325
v -0.809632 0.576803 -4.556636
v -0.409976 0.852300 -4.623927
v -0.004740 1.118909 -4.692158
v 0.405830 1.376431 -4.761286
v 0.821476 1.624677 -4.831270
v 1.241936 1.863470 -4.902063
v 1.666939 2.092645 -4.973622
v 2.092309 2.310109 -5.045242
v 2.521594 2.517842 -5.117522
v 2.954517 2.715721 -5.190414
v 3.390794 2.903634 -5.263871
v 3.830139 3.081485 -5.337845
v 4.272261 3.249188 -5.412286
v 4.598236 3.249188 -4.163265
v 4.176124 3.081485 -4.012154
v 3.756663 2.903634 -3.861993
v 3.340131 2.715721 -3.712880
v 2.926801 2.517842 -3.564913
v 2.516944 2.310109 -3.418190
v 2.110826 2.092645 -3.272805
v 1.705058 1.863470 -3.127545
v 1.303628 1.624677 -2.983838
v 0.906793 1.376431 -2.841776
v 0.514805 1.118909 -2.701449
v 0.127908 0.852300 -2.562945
v -0.253660 0.576803 -2.426349
v -0.629671 0.292630 -2.291742
v -0.865719 0.292630 -3.018490
v -0.482376 0.576803 -3.130522
v -0.093367 0.852300 -3.244209
v 0.301075 1.118909 -3.359484
v 0.700707 1.376431 -3.476276
v 1.105280 1.624677 -3.594512
v 1.514539 1.863470 -3.714117
v 1.928220 2.092645 -3.835015
v 2.342258 2.310109 -3.956017
v 2.760107 2.517842 -4.078133
v 3.181497 2.715721 -4.201284
v 3.606152 2.903634 -4.325388
v 4.033792 3.081485 -4.450366
v 4.464137 3.249188 -4.576133
v 5.344834 3.406673 -3.561032
v 4.941539 3.249188 -3.359453
v 4.540500 3.081485 -3.159001
v 4.141980 2.903634 -2.959808
v 3.746243 2.715721 -2.762006
v 3.353548 2.517842 -2.565725
v 2.964153 2.310109 -2.371093
v 2.578309 2.092645 -2.178236
v 2.192798 1.863470 -1.985546
v 1.811409 1.624677 -1.794915
v 1.434385 1.376431 -1.606467
v 1.061967 1.118909 -1.420321
v 0.694385 0.852300 -1.236592
v 0.331866 0.576803 -1.055393
v -0.025373 0.292630 -0.876834
v -0.349250 0.292630 -1.576514
v 0.018050 0.576803 -1.733338
v 0.390779 0.852300 -1.892481
v 0.768712 1.118909 -2.053846
v 1.151619 1.376431 -2.217334
v 1.539261 1.624677 -2.382844
v 1.931391 1.863470 -2.550271
v 2.327759 2.092645 -2.719506
v 2.724469 2.310109 -2.888888
v 3.124831 2.517842 -3.059829
v 3.528585 2.715721 -3.232218
v 3.935468 2.903634 -3.405943
v 4.345211 3.081485 -3.580890
v 4.757544 3.249188 -3.756943
v 5.172196 3.406673 -3.933985
v 5.756361 3.406673 -2.848246
v 5.380141 3.249188 -2.599772
v 5.006025 3.081485 -2.352688
v 4.634259 2.903634 -2.107156
v 4.265089 2.715721 -1.863339
v 3.898757 2.517842 -1.621395
v 3.535503 2.310109 -1.381485
v 3.175563 2.092645 -1.143763
v 2.815932 1.863470 -0.906246
v 2.460147 1.624677 -0.671268
v 2.108434 1.376431 -0.438981
v 1.761017 1.118909 -0.209530
v 1.418113 0.852300 0.016941
v 1.079931 0.576803 0.240292
v 0.746674 0.292630 0.460391
v 0.340557 0.292630 -0.196621
v 0.686429 0.576803 -0.396310
v 1.037413 0.852300 -0.598951
v 1.393299 1.118909 -0.804421
v 1.753867 1.376431 -1.012596
v 2.118894 1.624677 -1.223344
v 2.488148 1.863470 -1.436533
v 2.861392 2.092645 -1.652025
v 3.234958 2.310109 -1.867704
v 3.611963 2.517842 -2.085368
v 3.992163 2.715721 -2.304876
v 4.375308 2.903634 -2.526085
v 4.761147 3.081485 -2.748849
v 5.149425 3.249188 -2.973022
v 5.539887 3.406673 -3.198455
v 5.993029 3.406673 -2.512261
v 5.632380 3.249188 -2.241683
v 5.273747 3.081485 -1.972618
v 4.917367 2.903634 -1.705243
v 4.563476 2.715721 -1.439735
v 4.212305 2.517842 -1.176269
v 3.864085 2.310109 -0.915015
v 3.519041 2.092645 -0.656146
v 3.174295 1.863470 -0.397499
v 2.833234 1.624677 -0.141617
v 2.496077 1.376431 0.111336
v 2.163039 1.118909 0.361198
v 1.834326 0.852300 0.607816
v 1.510140 0.576803 0.851037
v 1.190676 0.292630 1.090716
v 6.195116 3.249188 -1.577989
v 5.871026 3.081485 -1.268184
v 5.548972 2.903634 -0.960325
v 5.229167 2.715721 -0.654616
v 4.911820 2.517842 -0.351257
v 4.597140 2.310109 -0.050446
v 4.285330 2.092645 0.247620
v 3.973789 1.863470 0.545429
v 3.665579 1.624677 0.840055
v 3.360897 1.376431 1.131308
v 3.059936 1.118909 1.419004
v 2.762884 0.852300 1.702963
v 2.469924 0.576803 1.983011
v 2.181230 0.292630 2.258980
v 1.669871 0.292630 1.691182
v 1.974450 0.576803 1.432851
v 2.283530 0.852300 1.170701
v 2.596926 1.118909 0.904891
v 2.914447 1.376431 0.635582
v 3.235893 1.624677 0.362944
v 3.561062 1.863470 0.087149
v 3.889745 2.092645 -0.191627
v 4.218711 2.310109 -0.470643
v 4.550706 2.517842 -0.752228
v 4.885514 2.715721 -1.036198
v 5.222916 2.903634 -1.322369
v 5.562689 3.081485 -1.610552
v 5.904612 3.249188 -1.900557
v 6.823308 3.249188 -0.993744
v 6.537779 3.081485 -0.648075
v 6.254044 2.903634 -0.304578
v 5.972289 2.715721 0.036520
v 5.692701 2.517842 0.374996
v 5.415462 2.310109 0.710629
v 5.140752 2.092645 1.043200
v 4.866279 1.863470 1.375484
v 4.594740 1.624677 1.704215
v 4.326310 1.376431 2.029184
v 4.061158 1.118909 2.350183
v 3.799450 0.852300 2.667014
v 3.541346 0.576803 2.979480
v 3.287002 0.292630 3.287396
v 2.993358 0.576803 2.499189
v 3.269290 0.852300 2.202348
v 3.549075 1.118909 1.901362
v 3.832541 1.376431 1.596415
v 4.119513 1.624677 1.287697
v 4.409808 1.863470 0.975404
v 4.703240 2.092645 0.659736
v 4.996925 2.310109 0.343796
v 5.293313 2.517842 0.024948
v 5.592213 2.715721 -0.296602
v 5.893429 2.903634 -0.620643
v 6.196762 3.081485 -0.946963
v 6.502014 3.249188 -1.275346
v 6.808981 3.406673 -1.605575
v 3.874241 0.292630 3.744531
v 4.110344 0.576803 3.422415
v 4.349936 0.852300 3.095538
v 4.592874 1.118909 2.764097
v 4.839009 1.376431 2.428294
v 5.088187 1.624677 2.088338
v 5.340251 1.863470 1.744446
v 5.595039 2.092645 1.396838
v 5.850046 2.310109 1.048930
v 6.107402 2.517842 0.697819
v 6.366937 2.715721 0.343733
v 6.628484 2.903634 -0.013096
v 6.891869 3.081485 -0.372434
v 7.156920 3.249188 -0.734044
v 7.423461 3.406673 -1.097687
vt -7.754304 0.880887 0.000000
vt -7.754304 0.059695 0.000000
vt -7.267511 0.658288 0.000000
vt -6.789626 0.094091 0.000000
vt -6.780718 0.658288 0.000000
vt -6.293925 0.658288 0.000000
vt -6.780718 1.256881 0.000000
vt -6.293925 1.256881 0.000000
vt -6.780718 1.855475 0.000000
vt -6.293925 1.855475 0.000000
vt -6.780718 2.454068 0.000000
vt -6.293925 2.454068 0.000000
vt -6.780718 3.052661 0.000000
vt -6.293925 3.052661 0.000000
vt -6.780718 3.651254 0.000000
vt -6.293925 3.651254 0.000000
vt -6.780718 4.249847 0.000000
vt -6.293925 4.249847 0.000000
vt -6.780718 4.848441 0.000000
vt -6.293925 4.848441 0.000000
vt -6.780718 5.447034 0.000000
vt -6.293925 5.447034 0.000000
vt -6.780718 6.045627 0.000000
vt -6.293925 6.045627 0.000000
vt -6.780718 6.644220 0.000000
vt -6.293925 6.644220 0.000000
vt -6.780718 7.242813 0.000000
vt -6.293925 7.242813 0.000000
vt -6.780718 7.841407 0.000000
vt -6.293925 7.841407 0.000000
vt -6.780718 8.440000 0.000000
vt -6.293925 8.440000 0.000000
vt -6.780718 9.038593 0.000000
vt -6.293925 9.038593 0.000000
vt -6.789626 9.602790 0.000000
vt -5.825260 9.562593 0.000000
vt -5.807132 9.038593 0.000000
vt -5.320339 9.038593 0.000000
vt -5.320339 8.440000 0.000000
vt -4.833546 8.440000 0.000000
vt -4.833546 7.841407 0.000000
vt -4.346753 7.841407 0.000000
vt -4.346753 7.242813 0.000000
vt -3.859960 7.242813 0.000000
vt -3.859960 6.644220 0.000000
vt -3.377465 6.644220 0.000000
vt -3.377465 6.045627 0.000000
vt -2.894970 6.045627 0.000000
vt -2.894970 5.447034 0.000000
vt -2.412475 5.447034 0.000000
vt -2.412475 4.848441 0.000000
vt -1.929980 4.848441 0.000000
vt -1.929980 4.249847 0.000000
vt -1.447485 4.249847 0.000000
vt -1.447485 3.651254 0.000000
vt -0.964990 3.651254 0.000000
vt -0.964990 3.052661 0.000000
vt -0.482495 3.052661 0.000000
vt -0.482495 2.454068 0.000000
vt -0.000000 2.767589 0.000000
vt -0.000000 1.712923 0.000000
vt -0.482495 1.855475 0.000000
vt -0.482495 1.256881 0.000000
vt -0.964990 1.855475 0.000000
vt -0.964990 1.256881 0.000000
vt -1.447485 1.855475 0.000000
vt -1.447485 1.256881 0.000000
vt -1.929980 1.855475 0.000000
vt -1.929980 1.256881 0.000000
vt -2.412475 1.855475 0.000000
vt -2.412475 1.256881 0.000000
vt -2.894970 1.855475 0.000000
vt -2.894970 1.256881 0.000000
vt -3.377465 1.855475 0.000000
vt -3.377465 1.256881 0.000000
vt -3.859960 1.855475 0.000000
vt -3.859960 1.256881 0.000000
vt -4.346753 1.855475 0.000000
vt -4.346753 1.256881 0.000000
vt -4.833546 1.855475 0.000000
vt -4.833546 1.256881 0.000000
vt -5.320339 1.855475 0.000000
vt -5.320339 1.256881 0.000000
vt -5.807132 1.855475 0.000000
vt -5.807132 1.256881 0.000000
vt -5.825260 0.134289 0.000000
vt -5.807132 0.658288 0.000000
vt -5.320339 0.658288 0.000000
vt -4.860063 0.181776 0.000000
vt -4.833546 0.658288 0.000000
vt -4.346753 0.658288 0.000000
vt -3.892878 0.238603 0.000000
vt -3.859960 0.658288 0.000000
vt -3.377465 0.658288 0.000000
vt -2.923662 0.307589 0.000000
vt -2.894970 0.658288 0.000000
vt -2.412475 0.658288 0.000000
vt -1.952448 0.392815 0.000000
vt -1.929980 0.658288 0.000000
vt -1.447485 0.658288 0.000000
vt -0.978207 0.500560 0.000000
vt -0.964990 0.658288 0.000000
vt -0.482495 0.658288 0.000000
vt -0.000000 0.640817 0.000000
vt -0.000000 3.810838 0.000000
vt -0.482495 3.651254 0.000000
vt -0.964990 4.249847 0.000000
vt -1.447485 4.848441 0.000000
vt -1.929980 5.447034 0.000000
vt -2.412475 6.045627 0.000000
vt -2.894970 6.644220 0.000000
vt -3.377465 7.242813 0.000000
vt -3.859960 7.841407 0.000000
vt -4.346753 8.440000 0.000000
vt -4.833546 9.038593 0.000000
vt -4.860063 9.515106 0.000000
vt -0.482495 4.249847 0.000000
vt -0.000000 4.848441 0.000000
vt -0.482495 4.848441 0.000000
vt -0.482495 5.447034 0.000000
vt -0.964990 5.447034 0.000000
vt -0.964990 6.045627 0.000000
vt -1.447485 6.045627 0.000000
vt -1.447485 6.644220 0.000000
vt -1.929980 6.644220 0.000000
vt -1.929980 7.242813 0.000000
vt -2.412475 7.242813 0.000000
vt -2.412475 7.841407 0.000000
vt -2.894970 7.841407 0.000000
vt -2.894970 8.440000 0.000000
vt -3.377465 8.440000 0.000000
vt -3.377465 9.038593 0.000000
vt -3.859960 9.038593 0.000000
vt -3.892878 9.458279 0.000000
vt -4.346753 9.038593 0.000000
vt -0.000000 5.886043 0.000000
vt -0.482495 6.045627 0.000000
vt -0.964990 6.644220 0.000000
vt -1.447485 7.242813 0.000000
vt -1.929980 7.841407 0.000000
vt -2.412475 8.440000 0.000000
vt -2.894970 9.038593 0.000000
vt -2.923662 9.389292 0.000000
vt -0.482495 6.644220 0.000000
vt -0.000000 6.929292 0.000000
vt -0.482495 7.242813 0.000000
vt -0.000000 7.983958 0.000000
vt -0.482495 7.841407 0.000000
vt -0.482495 8.440000 0.000000
vt -0.964990 8.440000 0.000000
vt -0.964990 9.038593 0.000000
vt -1.447485 9.038593 0.000000
vt -0.978207 9.196322 0.000000
vt -1.952448 9.304066 0.000000
vt -0.000000 9.056064 0.000000
vt -0.482495 9.038593 0.000000
vt -2.412475 9.038593 0.000000
vt -1.929980 9.038593 0.000000
vt -1.447485 8.440000 0.000000
vt -0.964990 7.841407 0.000000
vt -7.267511 9.038593 0.000000
vt -7.754304 9.637186 0.000000
vt -7.754304 8.815995 0.000000
vt -7.267511 8.440000 0.000000
vt -7.754304 8.007574 0.000000
vt -7.267511 7.841407 0.000000
vt -7.754304 7.209180 0.000000
vt -7.267511 7.242813 0.000000
vt -7.267511 6.644220 0.000000
vt -7.754304 6.418197 0.000000
vt -7.267511 6.045627 0.000000
vt -7.754304 5.632104 0.000000
vt -7.267511 5.447034 0.000000
vt -7.754304 4.848441 0.000000
vt -7.267511 4.848441 0.000000
vt -7.267511 4.249847 0.000000
vt -7.754304 4.064777 0.000000
vt -7.267511 3.651254 0.000000
vt -7.754304 3.278684 0.000000
vt -7.267511 3.052661 0.000000
vt -7.754304 2.487701 0.000000
vt -7.267511 2.454068 0.000000
vt -7.267511 1.855475 0.000000
vt -7.754304 1.689307 0.000000
vt -7.267511 1.256881 0.000000
vt -0.964990 2.454068 0.000000
vt -1.447485 2.454068 0.000000
vt -1.447485 3.052661 0.000000
vt -1.929980 2.454068 0.000000
vt -1.929980 3.052661 0.000000
vt -1.929980 3.651254 0.000000
vt -2.412475 2.454068 0.000000
vt -2.412475 3.052661 0.000000
vt -2.412475 3.651254 0.000000
vt -2.412475 4.249847 0.000000
vt -2.894970 2.454068 0.000000
vt -2.894970 3.052661 0.000000
vt -2.894970 3.651254 0.000000
vt -2.894970 4.249847 0.000000
vt -2.894970 4.848441 0.000000
vt -3.377465 2.454068 0.000000
vt -3.377465 3.052661 0.000000
vt -3.377465 3.651254 0.000000
vt -3.377465 4.249847 0.000000
vt -3.377465 4.848441 0.000000
vt -3.377465 5.447034 0.000000
vt -3.859960 2.454068 0.000000
vt -3.859960 3.052661 0.000000
vt -3.859960 3.651254 0.000000
vt -3.859960 4.249847 0.000000
vt -3.859960 4.848441 0.000000
vt -3.859960 5.447034 0.000000
vt -3.859960 6.045627 0.000000
vt -4.346753 2.454068 0.000000
vt -4.346753 3.052661 0.000000
vt -4.346753 3.651254 0.000000
vt -4.346753 4.249847 0.000000
vt -4.346753 4.848441 0.000000
vt -4.346753 5.447034 0.000000
vt -4.346753 6.045627 0.000000
vt -4.346753 6.644220 0.000000
vt -4.833546 2.454068 0.000000
vt -4.833546 3.052661 0.000000
vt -4.833546 3.651254 0.000000
vt -4.833546 4.249847 0.000000
vt -4.833546 4.848441 0.000000
vt -4.833546 5.447034 0.000000
vt -4.833546 6.045627 0.000000
vt -4.833546 6.644220 0.000000
vt -4.833546 7.242813 0.000000
vt -5.320339 2.454068 0.000000
vt -5.320339 3.052661 0.000000
vt -5.320339 3.651254 0.000000
vt -5.320339 4.249847 0.000000
vt -5.320339 4.848441 0.000000
vt -5.320339 5.447034 0.000000
vt -5.320339 6.045627 0.000000
vt -5.320339 6.644220 0.000000
vt -5.320339 7.242813 0.000000
vt -5.320339 7.841407 0.000000
vt -5.807132 2.454068 0.000000
vt -5.807132 3.052661 0.000000
vt -5.807132 3.651254 0.000000
vt -5.807132 4.249847 0.000000
vt -5.807132 4.848441 0.000000
vt -5.807132 5.447034 0.000000
vt -5.807132 6.045627 0.000000
vt -5.807132 6.644220 0.000000
vt -5.807132 7.242813 0.000000
vt -5.807132 7.841407 0.000000
vt -5.807132 8.440000 0.000000
vt -0.964990 4.848441 0.000000
vt -1.447485 5.447034 0.000000
vt -1.929980 6.045627 0.000000
vt -2.412475 6.644220 0.000000
vt -2.894970 7.242813 0.000000
vt -3.377465 7.841407 0.000000
vt -3.859960 8.440000 0.000000
vt -0.964990 7.242813 0.000000
vt -1.447485 7.841407 0.000000
vt -1.929980 8.440000 0.000000
vt -4.693544 35.373724 0.000000
vt -4.494601 35.373724 0.000000
vt -4.693544 36.415787 0.000000
vt -4.494601 36.415787 0.000000
vt -4.693544 37.457850 0.000000
vt -4.494601 37.457850 0.000000
vt -4.693544 38.499914 0.000000
vt -4.494601 38.499914 0.000000
vt -4.693544 39.541977 0.000000
vt -4.494601 39.541977 0.000000
vt -4.693544 40.584040 0.000000
vt -4.494601 40.584040 0.000000
vt -4.693544 41.626103 0.000000
vt -4.494601 41.626103 0.000000
vt -4.693544 42.668166 0.000000
vt -4.494601 42.668166 0.000000
vt -4.693544 43.710229 0.000000
vt -4.494601 43.710229 0.000000
vt -4.693544 44.752292 0.000000
vt -4.494601 44.752292 0.000000
vt -4.693544 45.794355 0.000000
vt -4.494601 45.794355 0.000000
vt -4.693544 46.836418 0.000000
vt -4.494601 46.836418 0.000000
vt -4.693544 47.878481 0.000000
vt -4.494601 47.878481 0.000000
vt 0.000000 7.985842 0.000000
vt 0.483439 8.441991 0.000000
vt 0.000000 9.058200 0.000000
vt 0.483439 9.040725 0.000000
vt 0.980449 9.198639 0.000000
vt 0.966878 9.040725 0.000000
vt 1.450317 9.040725 0.000000
vt 1.450317 8.441991 0.000000
vt 1.933757 8.441991 0.000000
vt 1.933757 7.843256 0.000000
vt 2.417196 7.843256 0.000000
vt 2.417196 7.244522 0.000000
vt 2.900635 7.244522 0.000000
vt 2.900635 6.645788 0.000000
vt 3.384074 6.645788 0.000000
vt 3.384074 6.047053 0.000000
vt 3.867513 6.047053 0.000000
vt 3.867513 5.448319 0.000000
vt 4.355364 5.448319 0.000000
vt 4.355364 4.849584 0.000000
vt 4.843215 4.849584 0.000000
vt 4.843215 4.250850 0.000000
vt 5.331067 4.250850 0.000000
vt 5.331067 3.652116 0.000000
vt 5.818918 3.652116 0.000000
vt 5.818918 3.053381 0.000000
vt 6.306769 3.053381 0.000000
vt 6.306769 2.454647 0.000000
vt 6.794620 2.454647 0.000000
vt 6.794620 1.855912 0.000000
vt 7.282471 1.855912 0.000000
vt 7.282471 1.257178 0.000000
vt 7.770322 1.689706 0.000000
vt 7.770322 0.881094 0.000000
vt 7.282471 0.658444 0.000000
vt 7.770322 0.059709 0.000000
vt 6.803776 0.094055 0.000000
vt 6.794620 0.658444 0.000000
vt 6.306769 0.658444 0.000000
vt 6.306769 1.257178 0.000000
vt 5.818918 1.257178 0.000000
vt 5.818918 1.855912 0.000000
vt 5.331067 1.855912 0.000000
vt 5.331067 2.454647 0.000000
vt 4.843215 2.454647 0.000000
vt 4.843215 3.053381 0.000000
vt 4.355364 3.053381 0.000000
vt 4.355364 3.652116 0.000000
vt 3.867513 3.652116 0.000000
vt 3.867513 4.250850 0.000000
vt 3.384074 4.250850 0.000000
vt 3.384074 4.849584 0.000000
vt 2.900635 4.849584 0.000000
vt 2.900635 5.448319 0.000000
vt 2.417196 5.448319 0.000000
vt 2.417196 6.047053 0.000000
vt 1.933757 6.047053 0.000000
vt 1.933757 6.645788 0.000000
vt 1.450317 6.645788 0.000000
vt 1.450317 7.244522 0.000000
vt 0.966878 7.244522 0.000000
vt 0.966878 7.843256 0.000000
vt 0.483439 7.843256 0.000000
vt 0.483439 7.244522 0.000000
vt 0.000000 6.930927 0.000000
vt 0.483439 6.645788 0.000000
vt 0.000000 5.887432 0.000000
vt 0.483439 6.047053 0.000000
vt 0.483439 5.448319 0.000000
vt 0.966878 5.448319 0.000000
vt 0.966878 4.849584 0.000000
vt 1.450317 4.849584 0.000000
vt 1.450317 4.250850 0.000000
vt 1.933757 4.250850 0.000000
vt 1.933757 3.652116 0.000000
vt 2.417196 3.652116 0.000000
vt 2.417196 3.053381 0.000000
vt 2.900635 3.053381 0.000000
vt 2.900635 2.454647 0.000000
vt 3.384074 2.454647 0.000000
vt 3.384074 1.855912 0.000000
vt 3.867513 1.855912 0.000000
vt 3.867513 1.257178 0.000000
vt 4.355364 1.257178 0.000000
vt 4.355364 0.658444 0.000000
vt 4.843215 0.658444 0.000000
vt 4.870445 0.181659 0.000000
vt 5.331067 0.658444 0.000000
vt 5.837539 0.134208 0.000000
vt 5.818918 0.658444 0.000000
vt 0.000000 4.849584 0.000000
vt 0.483439 4.849584 0.000000
vt 0.966878 4.250850 0.000000
vt 1.450317 3.652116 0.000000
vt 1.933757 3.053381 0.000000
vt 2.417196 2.454647 0.000000
vt 2.900635 1.855912 0.000000
vt 3.384074 1.257178 0.000000
vt 3.867513 0.658444 0.000000
vt 3.901314 0.238463 0.000000
vt 0.483439 4.250850 0.000000
vt 0.000000 3.811737 0.000000
vt 0.483439 3.652116 0.000000
vt 0.483439 3.053381 0.000000
vt 0.966878 3.053381 0.000000
vt 0.966878 2.454647 0.000000
vt 1.450317 2.454647 0.000000
vt 1.450317 1.855912 0.000000
vt 1.933757 1.855912 0.000000
vt 1.933757 1.257178 0.000000
vt 2.417196 1.257178 0.000000
vt 2.417196 0.658444 0.000000
vt 2.900635 0.658444 0.000000
vt 2.930098 0.307447 0.000000
vt 3.384074 0.658444 0.000000
vt 0.000000 2.768242 0.000000
vt 0.483439 2.454647 0.000000
vt 0.966878 1.855912 0.000000
vt 1.450317 1.257178 0.000000
vt 1.933757 0.658444 0.000000
vt 1.956827 0.392702 0.000000
vt 0.000000 1.713327 0.000000
vt 0.483439 1.855912 0.000000
vt 0.966878 1.257178 0.000000
vt 1.450317 0.658444 0.000000
vt 0.483439 1.257178 0.000000
vt 0.000000 0.640968 0.000000
vt 0.483439 0.658444 0.000000
vt 0.980449 0.500530 0.000000
vt 0.966878 0.658444 0.000000
vt 7.770322 2.488288 0.000000
vt 7.282471 2.454647 0.000000
vt 6.794620 3.053381 0.000000
vt 6.306769 3.652116 0.000000
vt 5.818918 4.250850 0.000000
vt 5.331067 4.849584 0.000000
vt 4.843215 5.448319 0.000000
vt 4.355364 6.047053 0.000000
vt 3.867513 6.645788 0.000000
vt 3.384074 7.244522 0.000000
vt 2.900635 7.843256 0.000000
vt 2.417196 8.441991 0.000000
vt 1.933757 9.040725 0.000000
vt 1.956827 9.306466 0.000000
vt 7.282471 3.053381 0.000000
vt 7.770322 3.279458 0.000000
vt 7.282471 3.652116 0.000000
vt 7.770322 4.065736 0.000000
vt 7.282471 4.250850 0.000000
vt 7.770322 4.849584 0.000000
vt 7.282471 4.849584 0.000000
vt 7.282471 5.448319 0.000000
vt 6.794620 5.448319 0.000000
vt 6.794620 6.047053 0.000000
vt 6.306769 6.047053 0.000000
vt 6.306769 6.645788 0.000000
vt 5.818918 6.645788 0.000000
vt 5.818918 7.244522 0.000000
vt 5.331067 7.244522 0.000000
vt 5.331067 7.843256 0.000000
vt 4.843215 7.843256 0.000000
vt 4.843215 8.441991 0.000000
vt 4.355364 8.441991 0.000000
vt 4.355364 9.040725 0.000000
vt 3.867513 9.040725 0.000000
vt 3.901314 9.460706 0.000000
vt 3.384074 9.040725 0.000000
vt 2.930098 9.391722 0.000000
vt 2.900635 9.040725 0.000000
vt 2.417196 9.040725 0.000000
vt 2.900635 8.441991 0.000000
vt 7.770322 5.633433 0.000000
vt 7.282471 6.047053 0.000000
vt 6.794620 6.645788 0.000000
vt 6.306769 7.244522 0.000000
vt 5.818918 7.843256 0.000000
vt 5.331067 8.441991 0.000000
vt 4.843215 9.040725 0.000000
vt 4.870445 9.517510 0.000000
vt 7.770322 6.419711 0.000000
vt 7.282471 6.645788 0.000000
vt 6.794620 7.244522 0.000000
vt 6.306769 7.843256 0.000000
vt 5.818918 8.441991 0.000000
vt 5.331067 9.040725 0.000000
vt 7.770322 7.210881 0.000000
vt 7.282471 7.244522 0.000000
vt 6.794620 7.843256 0.000000
vt 6.306769 8.441991 0.000000
vt 5.818918 9.040725 0.000000
vt 5.837539 9.564961 0.000000
vt 7.282471 7.843256 0.000000
vt 7.770322 8.009463 0.000000
vt 7.282471 8.441991 0.000000
vt 7.770322 8.818074 0.000000
vt 7.282471 9.040725 0.000000
vt 7.770322 9.639460 0.000000
vt 6.803776 9.605114 0.000000
vt 6.306769 9.040725 0.000000
vt 6.794620 9.040725 0.000000
vt 0.966878 8.441991 0.000000
vt 3.384074 8.441991 0.000000
vt 3.384074 7.843256 0.000000
vt 3.867513 8.441991 0.000000
vt 3.867513 7.843256 0.000000
vt 3.867513 7.244522 0.000000
vt 6.794620 8.441991 0.000000
vt 1.450317 7.843256 0.000000
vt 1.933757 7.244522 0.000000
vt 2.417196 6.645788 0.000000
vt 2.900635 6.047053 0.000000
vt 3.384074 5.448319 0.000000
vt 3.867513 4.849584 0.000000
vt 4.355364 4.250850 0.000000
vt 4.843215 3.652116 0.000000
vt 5.331067 3.053381 0.000000
vt 5.818918 2.454647 0.000000
vt 6.306769 1.855912 0.000000
vt 6.794620 1.257178 0.000000
vt 4.355364 7.843256 0.000000
vt 4.843215 7.244522 0.000000
vt 5.331067 6.645788 0.000000
vt 5.818918 6.047053 0.000000
vt 6.306769 5.448319 0.000000
vt 6.794620 4.849584 0.000000
vt 4.355364 7.244522 0.000000
vt 4.355364 6.645788 0.000000
vt 0.966878 6.645788 0.000000
vt 1.450317 6.047053 0.000000
vt 1.933757 5.448319 0.000000
vt 2.417196 4.849584 0.000000
vt 2.900635 4.250850 0.000000
vt 3.384074 3.652116 0.000000
vt 3.867513 3.053381 0.000000
vt 4.355364 2.454647 0.000000
vt 4.843215 1.855912 0.000000
vt 5.331067 1.257178 0.000000
vt 0.966878 6.047053 0.000000
vt 4.843215 6.645788 0.000000
vt 5.331067 6.047053 0.000000
vt 5.818918 5.448319 0.000000
vt 6.306769 4.849584 0.000000
vt 6.794620 4.250850 0.000000
vt 4.843215 6.047053 0.000000
vt 1.450317 5.448319 0.000000
vt 1.933757 4.849584 0.000000
vt 2.417196 4.250850 0.000000
vt 2.900635 3.652116 0.000000
vt 3.384074 3.053381 0.000000
vt 3.867513 2.454647 0.000000
vt 4.355364 1.855912 0.000000
vt 4.843215 1.257178 0.000000
vt 5.331067 5.448319 0.000000
vt 5.818918 4.849584 0.000000
vt 6.306769 4.250850 0.000000
vt 6.794620 3.652116 0.000000
vt 0.966878 3.652116 0.000000
vt 1.450317 3.053381 0.000000
vt 1.933757 2.454647 0.000000
vt 2.417196 1.855912 0.000000
vt 2.900635 1.257178 0.000000
vt 0.973422 17.441475 0.000000
vt 1.139662 17.441475 0.000000
vt 0.973422 18.107655 0.000000
vt 1.139662 18.107655 0.000000
vt 0.973422 18.773834 0.000000
vt 1.139662 18.773834 0.000000
vt 0.973422 19.440014 0.000000
vt 1.139662 19.440014 0.000000
vt 0.973422 20.106193 0.000000
vt 1.139662 20.106193 0.000000
vt 0.973422 20.772372 0.000000
vt 1.139662 20.772372 0.000000
vt 0.973422 21.438552 0.000000
vt 1.139662 21.438552 0.000000
vt 0.973422 22.104731 0.000000
vt 1.139662 22.104731 0.000000
vt 0.973422 22.770910 0.000000
vt 1.139662 22.770910 0.000000
vt -0.000000 0.000000 0.000000
vt 0.000000 -0.166240 0.000000
vt 0.920098 -0.306385 0.000000
vt 0.921205 -0.475502 0.000000
vt 1.825247 -0.652836 0.000000
vt 1.827185 -0.825227 0.000000
vt 2.714388 -1.038618 0.000000
vt 2.716866 -1.214659 0.000000
vt 3.586464 -1.462996 0.000000
vt 3.589171 -1.643042 0.000000
vt 4.439448 -1.924680 0.000000
vt 4.442043 -2.109052 0.000000
vt 5.271451 -2.422241 0.000000
vt 5.273564 -2.611222 0.000000
vt 6.081606 -2.954726 0.000000
vt 6.082858 -3.148572 0.000000
vt 6.869045 -3.521179 0.000000
vt 6.869045 -3.720122 0.000000
vt 0.000000 0.000000 0.000000
vt -0.920098 -0.306385 0.000000
vt -0.000000 -0.166240 0.000000
vt -0.921205 -0.475502 0.000000
vt -1.825247 -0.652836 0.000000
vt -1.827185 -0.825227 0.000000
vt -2.714388 -1.038618 0.000000
vt -2.716866 -1.214659 0.000000
vt -3.586464 -1.462996 0.000000
vt -3.589171 -1.643042 0.000000
vt -4.439448 -1.924680 0.000000
vt -4.442043 -2.109052 0.000000
vt -5.271451 -2.422241 0.000000
vt -5.273564 -2.611222 0.000000
vt -6.081606 -2.954726 0.000000
vt -6.082858 -3.148572 0.000000
vt -6.869045 -3.521179 0.000000
vt -6.869045 -3.720122 0.000000
vn -0.365827 0.798983 0.477281
vn -0.327199 0.798983 0.504547
vn -0.345463 0.811490 0.471316
vn -0.310255 0.823471 0.475014
vn -0.335219 0.823691 0.457342
vn -0.324781 0.835571 0.443101
vn -0.361119 0.823691 0.437180
vn -0.349874 0.835571 0.423567
vn -0.386063 0.823691 0.415318
vn -0.374041 0.835571 0.402385
vn -0.409889 0.823691 0.391822
vn -0.397125 0.835571 0.379621
vn -0.432442 0.823691 0.366780
vn -0.418976 0.835571 0.355359
vn -0.453576 0.823691 0.340297
vn -0.439453 0.835571 0.329700
vn -0.473159 0.823691 0.312497
vn -0.458425 0.835571 0.302766
vn -0.491070 0.823691 0.283520
vn -0.475779 0.835571 0.274691
vn -0.507209 0.823691 0.253519
vn -0.491416 0.835571 0.245625
vn -0.521494 0.823691 0.222660
vn -0.505255 0.835571 0.215727
vn -0.533862 0.823691 0.191116
vn -0.517238 0.835571 0.185165
vn -0.544272 0.823691 0.159063
vn -0.527324 0.835571 0.154110
vn -0.552707 0.823691 0.126681
vn -0.535497 0.835571 0.122737
vn -0.559168 0.823691 0.094148
vn -0.541757 0.835571 0.091217
vn -0.563679 0.823691 0.061638
vn -0.546127 0.835571 0.059718
vn -0.566502 0.823471 0.031182
vn -0.531160 0.846694 0.031272
vn -0.528256 0.847118 0.057764
vn -0.510076 0.858319 0.055776
vn -0.505994 0.858319 0.085195
vn -0.487663 0.869162 0.082109
vn -0.482028 0.869162 0.110481
vn -0.463628 0.879635 0.106264
vn -0.456552 0.879635 0.133427
vn -0.438166 0.889726 0.128053
vn -0.429785 0.889726 0.153858
vn -0.411664 0.899341 0.147371
vn -0.402128 0.899341 0.171695
vn -0.384200 0.908560 0.164040
vn -0.373676 0.908560 0.186775
vn -0.356030 0.917374 0.177955
vn -0.344702 0.917374 0.199014
vn -0.327428 0.925773 0.189040
vn -0.315485 0.925773 0.208361
vn -0.298670 0.933749 0.197256
vn -0.286309 0.933749 0.214804
vn -0.270039 0.941294 0.202597
vn -0.257456 0.941294 0.218364
vn -0.241811 0.948401 0.205094
vn -0.229200 0.948401 0.219097
vn -0.220518 0.955064 0.198054
vn -0.198746 0.955064 0.219894
vn -0.215877 0.948401 0.232235
vn -0.201929 0.948401 0.244460
vn -0.229844 0.941294 0.247261
vn -0.214994 0.941294 0.260277
vn -0.243693 0.933749 0.262159
vn -0.227948 0.933749 0.275959
vn -0.257412 0.925773 0.276919
vn -0.240781 0.925773 0.291495
vn -0.270993 0.917374 0.291528
vn -0.253484 0.917374 0.306874
vn -0.284424 0.908560 0.305977
vn -0.266047 0.908560 0.322083
vn -0.297696 0.899341 0.320255
vn -0.278462 0.899341 0.337112
vn -0.310800 0.889726 0.334352
vn -0.290719 0.889726 0.351952
vn -0.323841 0.879635 0.348381
vn -0.302918 0.879635 0.366720
vn -0.336694 0.869162 0.362208
vn -0.314940 0.869162 0.381274
vn -0.349350 0.858319 0.375823
vn -0.326778 0.858319 0.395606
vn -0.361801 0.847118 0.389218
vn -0.338425 0.847118 0.409706
vn -0.292663 0.846694 0.444362
vn -0.314153 0.847118 0.428601
vn -0.303342 0.858319 0.413850
vn -0.274435 0.868581 0.412617
vn -0.292352 0.869162 0.398858
vn -0.281192 0.879635 0.383632
vn -0.255589 0.889056 0.379807
vn -0.269868 0.889726 0.368183
vn -0.258490 0.899341 0.352659
vn -0.236165 0.908023 0.346006
vn -0.246966 0.908560 0.336937
vn -0.235304 0.917374 0.321026
vn -0.216210 0.925391 0.311296
vn -0.223512 0.925773 0.304939
vn -0.211599 0.933749 0.288686
vn -0.195753 0.941093 0.275727
vn -0.199574 0.941294 0.272280
vn -0.187446 0.948401 0.255734
vn -0.174823 0.955064 0.239354
vn -0.239903 0.955064 0.174069
vn -0.253629 0.948401 0.190285
vn -0.281697 0.941294 0.186046
vn -0.309976 0.933749 0.178965
vn -0.338189 0.925773 0.169037
vn -0.366057 0.917374 0.156294
vn -0.393311 0.908560 0.140800
vn -0.419692 0.899341 0.122654
vn -0.444957 0.889726 0.101985
vn -0.469047 0.879635 0.078975
vn -0.491597 0.869162 0.053756
vn -0.494554 0.868581 0.031360
vn -0.264579 0.948401 0.174740
vn -0.256691 0.955064 0.148201
vn -0.274594 0.948401 0.158537
vn -0.283619 0.948401 0.141762
vn -0.301969 0.941294 0.150934
vn -0.310473 0.941294 0.132562
vn -0.329180 0.933749 0.140549
vn -0.336987 0.933749 0.120637
vn -0.355959 0.925773 0.127429
vn -0.362901 0.925773 0.106057
vn -0.382046 0.917374 0.111652
vn -0.387967 0.917374 0.088923
vn -0.407195 0.908560 0.093330
vn -0.411956 0.908560 0.069362
vn -0.431179 0.899341 0.072599
vn -0.434657 0.899341 0.047529
vn -0.453790 0.889726 0.049621
vn -0.456717 0.889056 0.031443
vn -0.472831 0.879635 0.051704
vn -0.270700 0.955064 0.120728
vn -0.291606 0.948401 0.124506
vn -0.317837 0.941294 0.113781
vn -0.343559 0.933749 0.100405
vn -0.368525 0.925773 0.084466
vn -0.392502 0.917374 0.066087
vn -0.415279 0.908560 0.045410
vn -0.417732 0.908023 0.031522
vn -0.298522 0.948401 0.106867
vn -0.281779 0.955064 0.091948
vn -0.304344 0.948401 0.088944
vn -0.289807 0.955064 0.062172
vn -0.309060 0.948401 0.070837
vn -0.312673 0.948401 0.052645
vn -0.332903 0.941294 0.056052
vn -0.335589 0.941294 0.036696
vn -0.355809 0.933749 0.038907
vn -0.336663 0.941093 0.031663
vn -0.377695 0.925391 0.031596
vn -0.294698 0.955064 0.031724
vn -0.315195 0.948401 0.034466
vn -0.395669 0.917374 0.043266
vn -0.375841 0.925773 0.041098
vn -0.352962 0.933749 0.059429
vn -0.329056 0.941294 0.075420
vn -0.580903 0.811490 0.063521
vn -0.600550 0.798983 0.031089
vn -0.596251 0.798983 0.078175
vn -0.576255 0.811490 0.097025
vn -0.588266 0.798983 0.124778
vn -0.569596 0.811490 0.130552
vn -0.576645 0.798983 0.170610
vn -0.560903 0.811490 0.163923
vn -0.550175 0.811490 0.196955
vn -0.561458 0.798983 0.215387
vn -0.537429 0.811490 0.229464
vn -0.542801 0.798983 0.258832
vn -0.522708 0.811490 0.261266
vn -0.520788 0.798983 0.300677
vn -0.506076 0.811490 0.292183
vn -0.487617 0.811490 0.322045
vn -0.495556 0.798983 0.340664
vn -0.467436 0.811490 0.350695
vn -0.467259 0.798983 0.378544
vn -0.445656 0.811490 0.377987
vn -0.436075 0.798983 0.414084
vn -0.422413 0.811490 0.403795
vn -0.397859 0.811490 0.428009
vn -0.402194 0.798983 0.447065
vn -0.372154 0.811490 0.450539
vn -0.244029 0.941294 0.233273
vn -0.258732 0.933749 0.247328
vn -0.272968 0.933749 0.231521
vn -0.273299 0.925773 0.261253
vn -0.288336 0.925773 0.244555
vn -0.302428 0.925773 0.226897
vn -0.287717 0.917374 0.275036
vn -0.303548 0.917374 0.257457
vn -0.318383 0.917374 0.238868
vn -0.332129 0.917374 0.219354
vn -0.301977 0.908560 0.288667
vn -0.318592 0.908560 0.270217
vn -0.334163 0.908560 0.250706
vn -0.348590 0.908560 0.230225
vn -0.361786 0.908560 0.208877
vn -0.316068 0.899341 0.302137
vn -0.333459 0.899341 0.282827
vn -0.349756 0.899341 0.262405
vn -0.364856 0.899341 0.240968
vn -0.378668 0.899341 0.218624
vn -0.391113 0.899341 0.195490
vn -0.329981 0.889726 0.315436
vn -0.348137 0.889726 0.295276
vn -0.365151 0.889726 0.273956
vn -0.380916 0.889726 0.251575
vn -0.395336 0.889726 0.228247
vn -0.408329 0.889726 0.204096
vn -0.419828 0.889726 0.179253
vn -0.343827 0.879635 0.328672
vn -0.362745 0.879635 0.307666
vn -0.380474 0.879635 0.285451
vn -0.396900 0.879635 0.262132
vn -0.411925 0.879635 0.237825
vn -0.425463 0.879635 0.212660
vn -0.437445 0.879635 0.186774
vn -0.447819 0.879635 0.160314
vn -0.357473 0.869162 0.341717
vn -0.377142 0.869162 0.319877
vn -0.395574 0.869162 0.296780
vn -0.412652 0.869162 0.272535
vn -0.428273 0.869162 0.247264
vn -0.442349 0.869162 0.221100
vn -0.454806 0.869162 0.194187
vn -0.465593 0.869162 0.166676
vn -0.474672 0.869162 0.138722
vn -0.370910 0.858319 0.354562
vn -0.391318 0.858319 0.331901
vn -0.410443 0.858319 0.307936
vn -0.428163 0.858319 0.282780
vn -0.444372 0.858319 0.256558
vn -0.458976 0.858319 0.229411
vn -0.471902 0.858319 0.201486
vn -0.483094 0.858319 0.172941
vn -0.492514 0.858319 0.143937
vn -0.500147 0.858319 0.114634
vn -0.384130 0.847118 0.367199
vn -0.405266 0.847118 0.343730
vn -0.425072 0.847118 0.318911
vn -0.443424 0.847118 0.292858
vn -0.460210 0.847118 0.265702
vn -0.475335 0.847118 0.237587
vn -0.488722 0.847118 0.208668
vn -0.500312 0.847118 0.179105
vn -0.510069 0.847118 0.149067
vn -0.517973 0.847118 0.118720
vn -0.524029 0.847118 0.088232
vn -0.292361 0.941294 0.168795
vn -0.320164 0.933749 0.160028
vn -0.347713 0.925773 0.148462
vn -0.374739 0.917374 0.134152
vn -0.400981 0.908560 0.117186
vn -0.426196 0.899341 0.097685
vn -0.450158 0.889726 0.075794
vn -0.324035 0.941294 0.094699
vn -0.348883 0.933749 0.079964
vn -0.372833 0.925773 0.062775
vn -0.544103 0.000000 0.839018
vn -0.544103 0.000000 0.839018
vn -0.608339 0.000000 0.793677
vn -0.608339 0.000000 0.793677
vn -0.668814 0.000000 0.743430
vn -0.668814 0.000000 0.743430
vn -0.725155 0.000000 0.688586
vn -0.725155 0.000000 0.688586
vn -0.777012 0.000000 0.629486
vn -0.777012 0.000000 0.629486
vn -0.824066 0.000000 0.566494
vn -0.824066 0.000000 0.566494
vn -0.866025 0.000000 0.500000
vn -0.866025 0.000000 0.500000
vn -0.902631 0.000000 0.430415
vn -0.902631 0.000000 0.430415
vn -0.933657 0.000000 0.358169
vn -0.933657 0.000000 0.358169
vn -0.958910 0.000000 0.283709
vn -0.958910 0.000000 0.283709
vn -0.978236 0.000000 0.207495
vn -0.978236 0.000000 0.207495
vn -0.991514 0.000000 0.129998
vn -0.991514 0.000000 0.129998
vn -0.998663 0.000000 0.051698
vn -0.998663 0.000000 0.051698
vn 0.291917 -0.954391 -0.062625
vn 0.314962 -0.947622 -0.053031
vn 0.296843 -0.954391 -0.031955
vn 0.317502 -0.947622 -0.034719
vn 0.339151 -0.940191 -0.031892
vn 0.338054 -0.940401 -0.036966
vn 0.358428 -0.932734 -0.039194
vn 0.355560 -0.932734 -0.059866
vn 0.375579 -0.924631 -0.063237
vn 0.371239 -0.924631 -0.085088
vn 0.390822 -0.916097 -0.089577
vn 0.384857 -0.916097 -0.112474
vn 0.403926 -0.907143 -0.118047
vn 0.396200 -0.907143 -0.141834
vn 0.414678 -0.897778 -0.148449
vn 0.405071 -0.897778 -0.172952
vn 0.422889 -0.888011 -0.180559
vn 0.411305 -0.888011 -0.205583
vn 0.428551 -0.877759 -0.214203
vn 0.414915 -0.877759 -0.239551
vn 0.431367 -0.867120 -0.249050
vn 0.415633 -0.867120 -0.274504
vn 0.431237 -0.856106 -0.284809
vn 0.413389 -0.856106 -0.310146
vn 0.428102 -0.844730 -0.321184
vn 0.408154 -0.844730 -0.346180
vn 0.421938 -0.833005 -0.357871
vn 0.399933 -0.833005 -0.382305
vn 0.412760 -0.820942 -0.394567
vn 0.388767 -0.820942 -0.418228
vn 0.400619 -0.808556 -0.430978
vn 0.374735 -0.808556 -0.453664
vn 0.404954 -0.795860 -0.450133
vn 0.368338 -0.795860 -0.480557
vn 0.347859 -0.808556 -0.474586
vn 0.329444 -0.795860 -0.508010
vn 0.312430 -0.820712 -0.478350
vn 0.337568 -0.820942 -0.460546
vn 0.327077 -0.833005 -0.446233
vn 0.352348 -0.833005 -0.426561
vn 0.340837 -0.844730 -0.412626
vn 0.364380 -0.844730 -0.391992
vn 0.351858 -0.856106 -0.378521
vn 0.373572 -0.856106 -0.357107
vn 0.360055 -0.867120 -0.344185
vn 0.379866 -0.867120 -0.322187
vn 0.365379 -0.877759 -0.309900
vn 0.383236 -0.877759 -0.287524
vn 0.367813 -0.888011 -0.275953
vn 0.383693 -0.888011 -0.253409
vn 0.367527 -0.897778 -0.242732
vn 0.381440 -0.897778 -0.220224
vn 0.364442 -0.907143 -0.210411
vn 0.376420 -0.907143 -0.188147
vn 0.358650 -0.916097 -0.179265
vn 0.368751 -0.916097 -0.157444
vn 0.350274 -0.924631 -0.149555
vn 0.358581 -0.924631 -0.128367
vn 0.339468 -0.932734 -0.121525
vn 0.346088 -0.932734 -0.101144
vn 0.326415 -0.940401 -0.095394
vn 0.331474 -0.940401 -0.075974
vn 0.311322 -0.947622 -0.071355
vn 0.306571 -0.947622 -0.089595
vn 0.283830 -0.954391 -0.092617
vn 0.300707 -0.947622 -0.107649
vn 0.272670 -0.954391 -0.121606
vn 0.293741 -0.947622 -0.125417
vn 0.285695 -0.947622 -0.142799
vn 0.304187 -0.940401 -0.152042
vn 0.294508 -0.940401 -0.170034
vn 0.312258 -0.932734 -0.180282
vn 0.300868 -0.932734 -0.198708
vn 0.317808 -0.924631 -0.209896
vn 0.304655 -0.924631 -0.228568
vn 0.320726 -0.916097 -0.240625
vn 0.305782 -0.916097 -0.259352
vn 0.320932 -0.907143 -0.272202
vn 0.304194 -0.907143 -0.290787
vn 0.318382 -0.897778 -0.304349
vn 0.299875 -0.897778 -0.322599
vn 0.313065 -0.888011 -0.336789
vn 0.292838 -0.888011 -0.354517
vn 0.305117 -0.877759 -0.369382
vn 0.283234 -0.877759 -0.386417
vn 0.294464 -0.867120 -0.401739
vn 0.276425 -0.866515 -0.415621
vn 0.305519 -0.856106 -0.416821
vn 0.294752 -0.844289 -0.447545
vn 0.316392 -0.844730 -0.431656
vn 0.258559 -0.954391 -0.149279
vn 0.276604 -0.947622 -0.159697
vn 0.283766 -0.940401 -0.187413
vn 0.288416 -0.932734 -0.216385
vn 0.290460 -0.924631 -0.246356
vn 0.289834 -0.916097 -0.277059
vn 0.286512 -0.907143 -0.308224
vn 0.280500 -0.897778 -0.339580
vn 0.271835 -0.888011 -0.370866
vn 0.257463 -0.887313 -0.382607
vn 0.266515 -0.947622 -0.176019
vn 0.241649 -0.954391 -0.175336
vn 0.255485 -0.947622 -0.191678
vn 0.243581 -0.947622 -0.206595
vn 0.259347 -0.940401 -0.219968
vn 0.245821 -0.940401 -0.234987
vn 0.260637 -0.932734 -0.249149
vn 0.245486 -0.932734 -0.264089
vn 0.259308 -0.924631 -0.278958
vn 0.242554 -0.924631 -0.293642
vn 0.255349 -0.916097 -0.309132
vn 0.237035 -0.916097 -0.323388
vn 0.248779 -0.907143 -0.339411
vn 0.237909 -0.906584 -0.348575
vn 0.260382 -0.897778 -0.355241
vn 0.222123 -0.954391 -0.199495
vn 0.230877 -0.947622 -0.220701
vn 0.231532 -0.940401 -0.249078
vn 0.229626 -0.932734 -0.277990
vn 0.225158 -0.924631 -0.307184
vn 0.217810 -0.924233 -0.313612
vn 0.200193 -0.954391 -0.221495
vn 0.217457 -0.947622 -0.233935
vn 0.216573 -0.940401 -0.262189
vn 0.213157 -0.932734 -0.290811
vn 0.203407 -0.947622 -0.246249
vn 0.176096 -0.954391 -0.241096
vn 0.188818 -0.947622 -0.257606
vn 0.197195 -0.940191 -0.277767
vn 0.201040 -0.940401 -0.274280
vn 0.439068 -0.795860 -0.416926
vn 0.425344 -0.808556 -0.406596
vn 0.435471 -0.820942 -0.369350
vn 0.442559 -0.833005 -0.332031
vn 0.446584 -0.844730 -0.294946
vn 0.447561 -0.856106 -0.258400
vn 0.445544 -0.867120 -0.222697
vn 0.440621 -0.877759 -0.188130
vn 0.432918 -0.888011 -0.154979
vn 0.422764 -0.897778 -0.123552
vn 0.410186 -0.907143 -0.094015
vn 0.395391 -0.916097 -0.066573
vn 0.378608 -0.924631 -0.041400
vn 0.380500 -0.924233 -0.031823
vn 0.448747 -0.808556 -0.380610
vn 0.470466 -0.795860 -0.381142
vn 0.470679 -0.808556 -0.353128
vn 0.498957 -0.795860 -0.343002
vn 0.491000 -0.808556 -0.324280
vn 0.524362 -0.795860 -0.302741
vn 0.509586 -0.808556 -0.294210
vn 0.526334 -0.808556 -0.263078
vn 0.510763 -0.820942 -0.255295
vn 0.525147 -0.820942 -0.224220
vn 0.508827 -0.833005 -0.217252
vn 0.520894 -0.833005 -0.186474
vn 0.503878 -0.844730 -0.180382
vn 0.513704 -0.844730 -0.150129
vn 0.496050 -0.856106 -0.144970
vn 0.503737 -0.856106 -0.115457
vn 0.485510 -0.867120 -0.111279
vn 0.491185 -0.867120 -0.082702
vn 0.472453 -0.877759 -0.079548
vn 0.476264 -0.877759 -0.052079
vn 0.457098 -0.888011 -0.049983
vn 0.460079 -0.887313 -0.031666
vn 0.437839 -0.897778 -0.047877
vn 0.420829 -0.906584 -0.031747
vn 0.418328 -0.907143 -0.045744
vn 0.398580 -0.916097 -0.043584
vn 0.414981 -0.907143 -0.069871
vn 0.546526 -0.795860 -0.260608
vn 0.541157 -0.808556 -0.231056
vn 0.537602 -0.820942 -0.192455
vn 0.531052 -0.833005 -0.155199
vn 0.521665 -0.844730 -0.119566
vn 0.509626 -0.856106 -0.085807
vn 0.495148 -0.867120 -0.054144
vn 0.498151 -0.866515 -0.031580
vn 0.565312 -0.795860 -0.216865
vn 0.553991 -0.808556 -0.198322
vn 0.548086 -0.820942 -0.160177
vn 0.539282 -0.833005 -0.123604
vn 0.527763 -0.844730 -0.088861
vn 0.513737 -0.856106 -0.056177
vn 0.580602 -0.795860 -0.171781
vn 0.564794 -0.808556 -0.165060
vn 0.556579 -0.820942 -0.127569
vn 0.545587 -0.833005 -0.091862
vn 0.532021 -0.844730 -0.058176
vn 0.534962 -0.844289 -0.031491
vn 0.573547 -0.808556 -0.131458
vn 0.592304 -0.795860 -0.125634
vn 0.580252 -0.808556 -0.097698
vn 0.600343 -0.795860 -0.078712
vn 0.584933 -0.808556 -0.063962
vn 0.604672 -0.795860 -0.031302
vn 0.570478 -0.820712 -0.031398
vn 0.549988 -0.833005 -0.060141
vn 0.567628 -0.820942 -0.062070
vn 0.335349 -0.940401 -0.056463
vn 0.434335 -0.897778 -0.073130
vn 0.429316 -0.897778 -0.098400
vn 0.453440 -0.888011 -0.076347
vn 0.448200 -0.888011 -0.102728
vn 0.441360 -0.888011 -0.128987
vn 0.563086 -0.820942 -0.094808
vn 0.351451 -0.932734 -0.080553
vn 0.365573 -0.924631 -0.106838
vn 0.377496 -0.916097 -0.135139
vn 0.387021 -0.907143 -0.165245
vn 0.393976 -0.897778 -0.196921
vn 0.398218 -0.888011 -0.229911
vn 0.399781 -0.877759 -0.264035
vn 0.398431 -0.867120 -0.298924
vn 0.394127 -0.856106 -0.334283
vn 0.386868 -0.844730 -0.369816
vn 0.376686 -0.833005 -0.405230
vn 0.363649 -0.820942 -0.440243
vn 0.466993 -0.877759 -0.107035
vn 0.478100 -0.867120 -0.139724
vn 0.486561 -0.856106 -0.174183
vn 0.492205 -0.844730 -0.210155
vn 0.494890 -0.833005 -0.247361
vn 0.494511 -0.820942 -0.285506
vn 0.459867 -0.877759 -0.134395
vn 0.451070 -0.877759 -0.161477
vn 0.320171 -0.940401 -0.114617
vn 0.331603 -0.932734 -0.141583
vn 0.340679 -0.924631 -0.170282
vn 0.347238 -0.916097 -0.200478
vn 0.351150 -0.907143 -0.231916
vn 0.352316 -0.897778 -0.264326
vn 0.350675 -0.888011 -0.297428
vn 0.346323 -0.877759 -0.331058
vn 0.339126 -0.867120 -0.364824
vn 0.329124 -0.856106 -0.398446
vn 0.312754 -0.940401 -0.133535
vn 0.468955 -0.867120 -0.167880
vn 0.475289 -0.856106 -0.202933
vn 0.478723 -0.844730 -0.239281
vn 0.479143 -0.833005 -0.276633
vn 0.476474 -0.820942 -0.314686
vn 0.458091 -0.867120 -0.195590
vn 0.322520 -0.932734 -0.161206
vn 0.329839 -0.924631 -0.190433
vn 0.334573 -0.916097 -0.220968
vn 0.336617 -0.907143 -0.252548
vn 0.335900 -0.897778 -0.284897
vn 0.332386 -0.888011 -0.317736
vn 0.326192 -0.877759 -0.350910
vn 0.317215 -0.867120 -0.384028
vn 0.462271 -0.856106 -0.231057
vn 0.463490 -0.844730 -0.267596
vn 0.461666 -0.833005 -0.304906
vn 0.456754 -0.820942 -0.342681
vn 0.272022 -0.940401 -0.204085
vn 0.274978 -0.932734 -0.233225
vn 0.275311 -0.924631 -0.263177
vn 0.272987 -0.916097 -0.293673
vn 0.268001 -0.907143 -0.324448
vn 0.589820 -0.000000 -0.807535
vn 0.589820 -0.000000 -0.807535
vn 0.670532 -0.000000 -0.741880
vn 0.670532 -0.000000 -0.741880
vn 0.743986 -0.000000 -0.668195
vn 0.743986 -0.000000 -0.668195
vn 0.809387 -0.000000 -0.587276
vn 0.809387 -0.000000 -0.587276
vn 0.866025 -0.000000 -0.500000
vn 0.866025 -0.000000 -0.500000
vn 0.913289 -0.000000 -0.407311
vn 0.913289 -0.000000 -0.407311
vn 0.950667 -0.000000 -0.310214
vn 0.950667 -0.000000 -0.310214
vn 0.977753 -0.000000 -0.209758
vn 0.977753 -0.000000 -0.209758
vn 0.994256 -0.000000 -0.107031
vn 0.994256 -0.000000 -0.107031
vn -0.000000 0.000000 -1.000000
vn -0.000000 0.000000 -1.000000
vn -0.000000 0.000000 -1.000000
vn -0.000000 0.000000 -1.000000
vn -0.000000 0.000000 -1.000000
vn -0.000000 0.000000 -1.000000
vn -0.000000 0.000000 -1.000000
vn -0.000000 0.000000 -1.000000
vn -0.000000 0.000000 -1.000000
vn -0.000000 0.000000 -1.000000
vn -0.000000 0.000000 -1.000000
vn -0.000000 0.000000 -1.000000
vn -0.000000 0.000000 -1.000000
vn -0.000000 0.000000 -1.000000
vn -0.000000 0.000000 -1.000000
vn -0.000000 0.000000 -1.000000
vn -0.000000 0.000000 -1.000000
vn -0.000000 0.000000 -1.000000
vn 0.866025 0.000000 0.500000
vn 0.866025 0.000000 0.500000
vn 0.866025 0.000000 0.500000
vn 0.866025 0.000000 0.500000
vn 0.866025 0.000000 0.500000
vn 0.866025 0.000000 0.500000
vn 0.866025 0.000000 0.500000
vn 0.866025 0.000000 0.500000
vn 0.866025 0.000000 0.500000
vn 0.866025 0.000000 0.500000
vn 0.866025 0.000000 0.500000
vn 0.866025 0.000000 0.500000
vn 0.866025 0.000000 0.500000
vn 0.866025 0.000000 0.500000
vn 0.866025 0.000000 0.500000
vn 0.866025 0.000000 0.500000
vn 0.866025 0.000000 0.500000
vn 0.866025 0.000000 0.500000
usemtl Aluminum_-_Anodized_Glossy_(Blue)
f 36/1/1 1/2/2 60/3/3
f 60/3/3 1/2/2 2/4/4
f 60/3/3 2/4/4 59/5/5
f 59/5/5 2/4/4 58/6/6
f 59/5/5 58/6/6 76/7/7
f 76/7/7 58/6/6 77/8/8
f 76/7/7 77/8/8 74/9/9
f 74/9/9 77/8/8 73/10/10
f 74/9/9 73/10/10 104/11/11
f 104/11/11 73/10/10 105/12/12
f 104/11/11 105/12/12 101/13/13
f 101/13/13 105/12/12 100/14/14
f 101/13/13 100/14/14 133/15/15
f 133/15/15 100/14/14 134/16/16
f 133/15/15 134/16/16 130/17/17
f 130/17/17 134/16/16 129/18/18
f 130/17/17 129/18/18 163/19/19
f 163/19/19 129/18/18 164/20/20
f 163/19/19 164/20/20 160/21/21
f 160/21/21 164/20/20 159/22/22
f 160/21/21 159/22/22 190/23/23
f 190/23/23 159/22/22 189/24/24
f 190/23/23 189/24/24 207/25/25
f 207/25/25 189/24/24 208/26/26
f 207/25/25 208/26/26 204/27/27
f 204/27/27 208/26/26 203/28/28
f 204/27/27 203/28/28 234/29/29
f 234/29/29 203/28/28 235/30/30
f 234/29/29 235/30/30 232/31/31
f 232/31/31 235/30/30 231/32/32
f 232/31/31 231/32/32 248/33/33
f 248/33/33 231/32/32 249/34/34
f 248/33/33 249/34/34 24/35/35
f 24/35/35 249/34/34 23/36/36
f 23/36/36 249/34/34 250/37/37
f 23/36/36 250/37/37 251/38/38
f 251/38/38 250/37/37 229/39/39
f 251/38/38 229/39/39 228/40/40
f 228/40/40 229/39/39 238/41/41
f 228/40/40 238/41/41 239/42/42
f 239/42/42 238/41/41 199/43/43
f 239/42/42 199/43/43 198/44/44
f 198/44/44 199/43/43 213/45/45
f 198/44/44 213/45/45 214/46/46
f 214/46/46 213/45/45 183/47/47
f 214/46/46 183/47/47 182/48/48
f 182/48/48 183/47/47 152/49/49
f 182/48/48 152/49/49 151/50/50
f 151/50/50 152/49/49 172/51/51
f 151/50/50 172/51/51 173/52/52
f 173/52/52 172/51/51 120/53/53
f 173/52/52 120/53/53 119/54/54
f 119/54/54 120/53/53 144/55/55
f 119/54/54 144/55/55 145/56/56
f 145/56/56 144/55/55 89/57/57
f 145/56/56 89/57/57 40/58/58
f 40/58/58 89/57/57 39/59/59
f 40/58/58 39/59/59 11/60/60
f 11/60/60 39/59/59 10/61/61
f 10/61/61 39/59/59 61/62/62
f 10/61/61 61/62/62 37/63/63
f 37/63/63 61/62/62 62/64/64
f 37/63/63 62/64/64 88/65/65
f 88/65/65 62/64/64 63/66/66
f 88/65/65 63/66/66 87/67/67
f 87/67/67 63/66/66 64/68/68
f 87/67/67 64/68/68 86/69/69
f 86/69/69 64/68/68 65/70/70
f 86/69/69 65/70/70 85/71/71
f 85/71/71 65/70/70 66/72/72
f 85/71/71 66/72/72 84/73/73
f 84/73/73 66/72/72 67/74/74
f 84/73/73 67/74/74 83/75/75
f 83/75/75 67/74/74 68/76/76
f 83/75/75 68/76/76 82/77/77
f 82/77/77 68/76/76 69/78/78
f 82/77/77 69/78/78 81/79/79
f 81/79/79 69/78/78 70/80/80
f 81/79/79 70/80/80 80/81/81
f 80/81/81 70/80/80 71/82/82
f 80/81/81 71/82/82 79/83/83
f 79/83/83 71/82/82 72/84/84
f 79/83/83 72/84/84 78/85/85
f 78/85/85 72/84/84 73/10/10
f 78/85/85 73/10/10 77/8/8
f 2/4/4 3/86/86 58/6/6
f 58/6/6 3/86/86 57/87/87
f 58/6/6 57/87/87 77/8/8
f 77/8/8 57/87/87 78/85/85
f 57/87/87 3/86/86 56/88/88
f 56/88/88 3/86/86 4/89/89
f 56/88/88 4/89/89 55/90/90
f 55/90/90 4/89/89 54/91/91
f 55/90/90 54/91/91 80/81/81
f 80/81/81 54/91/91 81/79/79
f 4/89/89 5/92/92 54/91/91
f 54/91/91 5/92/92 53/93/93
f 54/91/91 53/93/93 81/79/79
f 81/79/79 53/93/93 82/77/77
f 53/93/93 5/92/92 52/94/94
f 52/94/94 5/92/92 6/95/95
f 52/94/94 6/95/95 51/96/96
f 51/96/96 6/95/95 50/97/97
f 51/96/96 50/97/97 84/73/73
f 84/73/73 50/97/97 85/71/71
f 6/95/95 7/98/98 50/97/97
f 50/97/97 7/98/98 49/99/99
f 50/97/97 49/99/99 85/71/71
f 85/71/71 49/99/99 86/69/69
f 49/99/99 7/98/98 48/100/100
f 48/100/100 7/98/98 8/101/101
f 48/100/100 8/101/101 47/102/102
f 47/102/102 8/101/101 46/103/103
f 47/102/102 46/103/103 88/65/65
f 88/65/65 46/103/103 37/63/63
f 8/101/101 9/104/104 46/103/103
f 46/103/103 9/104/104 37/63/63
f 9/104/104 10/61/61 37/63/63
f 11/60/60 12/105/105 40/58/58
f 40/58/58 12/105/105 146/106/106
f 40/58/58 146/106/106 145/56/56
f 145/56/56 146/106/106 118/107/107
f 145/56/56 118/107/107 119/54/54
f 119/54/54 118/107/107 174/108/108
f 119/54/54 174/108/108 173/52/52
f 173/52/52 174/108/108 150/109/109
f 173/52/52 150/109/109 151/50/50
f 151/50/50 150/109/109 181/110/110
f 151/50/50 181/110/110 182/48/48
f 182/48/48 181/110/110 215/111/111
f 182/48/48 215/111/111 214/46/46
f 214/46/46 215/111/111 197/112/112
f 214/46/46 197/112/112 198/44/44
f 198/44/44 197/112/112 240/113/113
f 198/44/44 240/113/113 239/42/42
f 239/42/42 240/113/113 227/114/114
f 239/42/42 227/114/114 228/40/40
f 228/40/40 227/114/114 252/115/115
f 228/40/40 252/115/115 251/38/38
f 251/38/38 252/115/115 22/116/116
f 251/38/38 22/116/116 23/36/36
f 146/106/106 12/105/105 117/117/117
f 117/117/117 12/105/105 13/118/118
f 117/117/117 13/118/118 176/119/119
f 176/119/119 13/118/118 147/120/120
f 176/119/119 147/120/120 148/121/121
f 148/121/121 147/120/120 178/122/122
f 148/121/121 178/122/122 179/123/123
f 179/123/123 178/122/122 218/124/124
f 179/123/123 218/124/124 217/125/125
f 217/125/125 218/124/124 194/126/126
f 217/125/125 194/126/126 195/127/127
f 195/127/127 194/126/126 243/128/128
f 195/127/127 243/128/128 242/129/129
f 242/129/129 243/128/128 224/130/130
f 242/129/129 224/130/130 225/131/131
f 225/131/131 224/130/130 255/132/132
f 225/131/131 255/132/132 254/133/133
f 254/133/133 255/132/132 21/134/134
f 254/133/133 21/134/134 253/135/135
f 253/135/135 21/134/134 22/116/116
f 253/135/135 22/116/116 252/115/115
f 13/118/118 14/136/136 147/120/120
f 147/120/120 14/136/136 177/137/137
f 147/120/120 177/137/137 178/122/122
f 178/122/122 177/137/137 219/138/138
f 178/122/122 219/138/138 218/124/124
f 218/124/124 219/138/138 193/139/139
f 218/124/124 193/139/139 194/126/126
f 194/126/126 193/139/139 244/140/140
f 194/126/126 244/140/140 243/128/128
f 243/128/128 244/140/140 223/141/141
f 243/128/128 223/141/141 224/130/130
f 224/130/130 223/141/141 256/142/142
f 224/130/130 256/142/142 255/132/132
f 255/132/132 256/142/142 20/143/143
f 255/132/132 20/143/143 21/134/134
f 177/137/137 14/136/136 41/144/144
f 41/144/144 14/136/136 15/145/145
f 41/144/144 15/145/145 43/146/146
f 43/146/146 15/145/145 16/147/147
f 43/146/146 16/147/147 247/148/148
f 247/148/148 16/147/147 45/149/149
f 247/148/148 45/149/149 220/150/150
f 220/150/150 45/149/149 260/151/151
f 220/150/150 260/151/151 259/152/152
f 259/152/152 260/151/151 18/153/153
f 259/152/152 18/153/153 19/154/154
f 16/147/147 17/155/155 45/149/149
f 45/149/149 17/155/155 261/156/156
f 45/149/149 261/156/156 260/151/151
f 260/151/151 261/156/156 18/153/153
f 17/155/155 18/153/153 261/156/156
f 20/143/143 257/157/157 19/154/154
f 19/154/154 257/157/157 258/158/158
f 19/154/154 258/158/158 259/152/152
f 259/152/152 258/158/158 221/159/159
f 259/152/152 221/159/159 220/150/150
f 220/150/150 221/159/159 246/160/160
f 220/150/150 246/160/160 247/148/148
f 247/148/148 246/160/160 43/146/146
f 248/33/33 24/35/35 44/161/161
f 44/161/161 24/35/35 25/162/162
f 44/161/161 25/162/162 26/163/163
f 44/161/161 26/163/163 233/164/164
f 233/164/164 26/163/163 27/165/165
f 233/164/164 27/165/165 42/166/166
f 42/166/166 27/165/165 28/167/167
f 42/166/166 28/167/167 205/168/168
f 205/168/168 28/167/167 206/169/169
f 205/168/168 206/169/169 207/25/25
f 207/25/25 206/169/169 190/23/23
f 28/167/167 29/170/170 206/169/169
f 206/169/169 29/170/170 191/171/171
f 206/169/169 191/171/171 190/23/23
f 190/23/23 191/171/171 160/21/21
f 29/170/170 30/172/172 191/171/171
f 191/171/171 30/172/172 161/173/173
f 191/171/171 161/173/173 160/21/21
f 160/21/21 161/173/173 163/19/19
f 30/172/172 31/174/174 161/173/173
f 161/173/173 31/174/174 162/175/175
f 161/173/173 162/175/175 163/19/19
f 163/19/19 162/175/175 130/17/17
f 162/175/175 31/174/174 131/176/176
f 131/176/176 31/174/174 32/177/177
f 131/176/176 32/177/177 132/178/178
f 132/178/178 32/177/177 33/179/179
f 132/178/178 33/179/179 102/180/180
f 102/180/180 33/179/179 34/181/181
f 102/180/180 34/181/181 103/182/182
f 103/182/182 34/181/181 38/183/183
f 103/182/182 38/183/183 74/9/9
f 74/9/9 38/183/183 76/7/7
f 34/181/181 35/184/184 38/183/183
f 38/183/183 35/184/184 75/185/185
f 38/183/183 75/185/185 76/7/7
f 76/7/7 75/185/185 59/5/5
f 35/184/184 36/1/1 75/185/185
f 75/185/185 36/1/1 60/3/3
f 75/185/185 60/3/3 59/5/5
f 86/69/69 49/99/99 48/100/100
f 88/65/65 87/67/67 47/102/102
f 47/102/102 87/67/67 48/100/100
f 87/67/67 86/69/69 48/100/100
f 82/77/77 53/93/93 52/94/94
f 84/73/73 83/75/75 51/96/96
f 51/96/96 83/75/75 52/94/94
f 83/75/75 82/77/77 52/94/94
f 78/85/85 57/87/87 56/88/88
f 80/81/81 79/83/83 55/90/90
f 55/90/90 79/83/83 56/88/88
f 79/83/83 78/85/85 56/88/88
f 62/64/64 61/62/62 116/186/186
f 116/186/186 61/62/62 39/59/59
f 116/186/186 39/59/59 89/57/57
f 63/66/66 62/64/64 115/187/187
f 115/187/187 62/64/64 116/186/186
f 115/187/187 116/186/186 90/188/188
f 90/188/188 116/186/186 89/57/57
f 90/188/188 89/57/57 144/55/55
f 64/68/68 63/66/66 114/189/189
f 114/189/189 63/66/66 115/187/187
f 114/189/189 115/187/187 91/190/190
f 91/190/190 115/187/187 90/188/188
f 91/190/190 90/188/188 143/191/191
f 143/191/191 90/188/188 144/55/55
f 143/191/191 144/55/55 120/53/53
f 65/70/70 64/68/68 113/192/192
f 113/192/192 64/68/68 114/189/189
f 113/192/192 114/189/189 92/193/193
f 92/193/193 114/189/189 91/190/190
f 92/193/193 91/190/190 142/194/194
f 142/194/194 91/190/190 143/191/191
f 142/194/194 143/191/191 121/195/195
f 121/195/195 143/191/191 120/53/53
f 121/195/195 120/53/53 172/51/51
f 66/72/72 65/70/70 112/196/196
f 112/196/196 65/70/70 113/192/192
f 112/196/196 113/192/192 93/197/197
f 93/197/197 113/192/192 92/193/193
f 93/197/197 92/193/193 141/198/198
f 141/198/198 92/193/193 142/194/194
f 141/198/198 142/194/194 122/199/199
f 122/199/199 142/194/194 121/195/195
f 122/199/199 121/195/195 171/200/200
f 171/200/200 121/195/195 172/51/51
f 171/200/200 172/51/51 152/49/49
f 67/74/74 66/72/72 111/201/201
f 111/201/201 66/72/72 112/196/196
f 111/201/201 112/196/196 94/202/202
f 94/202/202 112/196/196 93/197/197
f 94/202/202 93/197/197 140/203/203
f 140/203/203 93/197/197 141/198/198
f 140/203/203 141/198/198 123/204/204
f 123/204/204 141/198/198 122/199/199
f 123/204/204 122/199/199 170/205/205
f 170/205/205 122/199/199 171/200/200
f 170/205/205 171/200/200 153/206/206
f 153/206/206 171/200/200 152/49/49
f 153/206/206 152/49/49 183/47/47
f 68/76/76 67/74/74 110/207/207
f 110/207/207 67/74/74 111/201/201
f 110/207/207 111/201/201 95/208/208
f 95/208/208 111/201/201 94/202/202
f 95/208/208 94/202/202 139/209/209
f 139/209/209 94/202/202 140/203/203
f 139/209/209 140/203/203 124/210/210
f 124/210/210 140/203/203 123/204/204
f 124/210/210 123/204/204 169/211/211
f 169/211/211 123/204/204 170/205/205
f 169/211/211 170/205/205 154/212/212
f 154/212/212 170/205/205 153/206/206
f 154/212/212 153/206/206 184/213/213
f 184/213/213 153/206/206 183/47/47
f 184/213/213 183/47/47 213/45/45
f 69/78/78 68/76/76 109/214/214
f 109/214/214 68/76/76 110/207/207
f 109/214/214 110/207/207 96/215/215
f 96/215/215 110/207/207 95/208/208
f 96/215/215 95/208/208 138/216/216
f 138/216/216 95/208/208 139/209/209
f 138/216/216 139/209/209 125/217/217
f 125/217/217 139/209/209 124/210/210
f 125/217/217 124/210/210 168/218/218
f 168/218/218 124/210/210 169/211/211
f 168/218/218 169/211/211 155/219/219
f 155/219/219 169/211/211 154/212/212
f 155/219/219 154/212/212 185/220/220
f 185/220/220 154/212/212 184/213/213
f 185/220/220 184/213/213 212/221/221
f 212/221/221 184/213/213 213/45/45
f 212/221/221 213/45/45 199/43/43
f 70/80/80 69/78/78 108/222/222
f 108/222/222 69/78/78 109/214/214
f 108/222/222 109/214/214 97/223/223
f 97/223/223 109/214/214 96/215/215
f 97/223/223 96/215/215 137/224/224
f 137/224/224 96/215/215 138/216/216
f 137/224/224 138/216/216 126/225/225
f 126/225/225 138/216/216 125/217/217
f 126/225/225 125/217/217 167/226/226
f 167/226/226 125/217/217 168/218/218
f 167/226/226 168/218/218 156/227/227
f 156/227/227 168/218/218 155/219/219
f 156/227/227 155/219/219 186/228/228
f 186/228/228 155/219/219 185/220/220
f 186/228/228 185/220/220 211/229/229
f 211/229/229 185/220/220 212/221/221
f 211/229/229 212/221/221 200/230/230
f 200/230/230 212/221/221 199/43/43
f 200/230/230 199/43/43 238/41/41
f 71/82/82 70/80/80 107/231/231
f 107/231/231 70/80/80 108/222/222
f 107/231/231 108/222/222 98/232/232
f 98/232/232 108/222/222 97/223/223
f 98/232/232 97/223/223 136/233/233
f 136/233/233 97/223/223 137/224/224
f 136/233/233 137/224/224 127/234/234
f 127/234/234 137/224/224 126/225/225
f 127/234/234 126/225/225 166/235/235
f 166/235/235 126/225/225 167/226/226
f 166/235/235 167/226/226 157/236/236
f 157/236/236 167/226/226 156/227/227
f 157/236/236 156/227/227 187/237/237
f 187/237/237 156/227/227 186/228/228
f 187/237/237 186/228/228 210/238/238
f 210/238/238 186/228/228 211/229/229
f 210/238/238 211/229/229 201/239/239
f 201/239/239 211/229/229 200/230/230
f 201/239/239 200/230/230 237/240/240
f 237/240/240 200/230/230 238/41/41
f 237/240/240 238/41/41 229/39/39
f 105/12/12 73/10/10 72/84/84
f 72/84/84 71/82/82 106/241/241
f 106/241/241 71/82/82 107/231/231
f 106/241/241 107/231/231 99/242/242
f 99/242/242 107/231/231 98/232/232
f 99/242/242 98/232/232 135/243/243
f 135/243/243 98/232/232 136/233/233
f 135/243/243 136/233/233 128/244/244
f 128/244/244 136/233/233 127/234/234
f 128/244/244 127/234/234 165/245/245
f 165/245/245 127/234/234 166/235/235
f 165/245/245 166/235/235 158/246/246
f 158/246/246 166/235/235 157/236/236
f 158/246/246 157/236/236 188/247/247
f 188/247/247 157/236/236 187/237/237
f 188/247/247 187/237/237 209/248/248
f 209/248/248 187/237/237 210/238/238
f 209/248/248 210/238/238 202/249/249
f 202/249/249 210/238/238 201/239/239
f 202/249/249 201/239/239 236/250/250
f 236/250/250 201/239/239 237/240/240
f 236/250/250 237/240/240 230/251/251
f 230/251/251 237/240/240 229/39/39
f 230/251/251 229/39/39 250/37/37
f 103/182/182 74/9/9 104/11/11
f 99/242/242 100/14/14 106/241/241
f 106/241/241 100/14/14 105/12/12
f 106/241/241 105/12/12 72/84/84
f 100/14/14 99/242/242 134/16/16
f 134/16/16 99/242/242 135/243/243
f 134/16/16 135/243/243 129/18/18
f 129/18/18 135/243/243 128/244/244
f 129/18/18 128/244/244 164/20/20
f 164/20/20 128/244/244 165/245/245
f 164/20/20 165/245/245 159/22/22
f 159/22/22 165/245/245 158/246/246
f 159/22/22 158/246/246 189/24/24
f 189/24/24 158/246/246 188/247/247
f 189/24/24 188/247/247 208/26/26
f 208/26/26 188/247/247 209/248/248
f 208/26/26 209/248/248 203/28/28
f 203/28/28 209/248/248 202/249/249
f 203/28/28 202/249/249 235/30/30
f 235/30/30 202/249/249 236/250/250
f 235/30/30 236/250/250 231/32/32
f 231/32/32 236/250/250 230/251/251
f 231/32/32 230/251/251 249/34/34
f 249/34/34 230/251/251 250/37/37
f 103/182/182 104/11/11 102/180/180
f 102/180/180 104/11/11 101/13/13
f 102/180/180 101/13/13 132/178/178
f 132/178/178 101/13/13 133/15/15
f 132/178/178 133/15/15 131/176/176
f 131/176/176 133/15/15 130/17/17
f 131/176/176 130/17/17 162/175/175
f 146/106/106 117/117/117 118/107/107
f 118/107/107 117/117/117 175/252/252
f 118/107/107 175/252/252 174/108/108
f 174/108/108 175/252/252 149/253/253
f 174/108/108 149/253/253 150/109/109
f 150/109/109 149/253/253 180/254/254
f 150/109/109 180/254/254 181/110/110
f 181/110/110 180/254/254 216/255/255
f 181/110/110 216/255/255 215/111/111
f 215/111/111 216/255/255 196/256/256
f 215/111/111 196/256/256 197/112/112
f 197/112/112 196/256/256 241/257/257
f 197/112/112 241/257/257 240/113/113
f 240/113/113 241/257/257 226/258/258
f 240/113/113 226/258/258 227/114/114
f 227/114/114 226/258/258 253/135/135
f 227/114/114 253/135/135 252/115/115
f 176/119/119 148/121/121 175/252/252
f 175/252/252 148/121/121 149/253/253
f 180/254/254 149/253/253 179/123/123
f 179/123/123 149/253/253 148/121/121
f 117/117/117 176/119/119 175/252/252
f 216/255/255 180/254/254 217/125/125
f 217/125/125 180/254/254 179/123/123
f 43/146/146 192/259/259 41/144/144
f 41/144/144 192/259/259 219/138/138
f 41/144/144 219/138/138 177/137/137
f 219/138/138 192/259/259 193/139/139
f 193/139/139 192/259/259 245/260/260
f 193/139/139 245/260/260 244/140/140
f 244/140/140 245/260/260 222/261/261
f 244/140/140 222/261/261 223/141/141
f 223/141/141 222/261/261 257/157/157
f 223/141/141 257/157/157 256/142/142
f 256/142/142 257/157/157 20/143/143
f 245/260/260 192/259/259 246/160/160
f 246/160/160 192/259/259 43/146/146
f 216/255/255 217/125/125 195/127/127
f 216/255/255 195/127/127 196/256/256
f 196/256/256 195/127/127 242/129/129
f 196/256/256 242/129/129 241/257/257
f 241/257/257 242/129/129 225/131/131
f 241/257/257 225/131/131 226/258/258
f 226/258/258 225/131/131 254/133/133
f 226/258/258 254/133/133 253/135/135
f 42/166/166 205/168/168 204/27/27
f 204/27/27 205/168/168 207/25/25
f 42/166/166 204/27/27 234/29/29
f 245/260/260 246/160/160 221/159/159
f 245/260/260 221/159/159 222/261/261
f 222/261/261 221/159/159 258/158/158
f 222/261/261 258/158/158 257/157/157
f 42/166/166 234/29/29 233/164/164
f 233/164/164 234/29/29 232/31/31
f 233/164/164 232/31/31 44/161/161
f 44/161/161 232/31/31 248/33/33
f 262/262/262 1/263/263 274/264/264
f 274/264/264 1/263/263 36/265/265
f 274/264/264 36/265/265 273/266/266
f 273/266/266 36/265/265 35/267/267
f 273/266/266 35/267/267 272/268/268
f 272/268/268 35/267/267 34/269/269
f 272/268/268 34/269/269 271/270/270
f 271/270/270 34/269/269 33/271/271
f 271/270/270 33/271/271 270/272/272
f 270/272/272 33/271/271 32/273/273
f 270/272/272 32/273/273 269/274/274
f 269/274/274 32/273/273 31/275/275
f 269/274/274 31/275/275 268/276/276
f 268/276/276 31/275/275 30/277/277
f 268/276/276 30/277/277 267/278/278
f 267/278/278 30/277/277 29/279/279
f 267/278/278 29/279/279 266/280/280
f 266/280/280 29/279/279 28/281/281
f 266/280/280 28/281/281 265/282/282
f 265/282/282 28/281/281 27/283/283
f 265/282/282 27/283/283 264/284/284
f 264/284/284 27/283/283 26/285/285
f 264/284/284 26/285/285 263/286/286
f 263/286/286 26/285/285 25/287/287
f 276/288/288 305/289/289 275/290/290
f 275/290/290 305/289/289 306/291/291
f 275/290/290 306/291/291 297/292/292
f 297/292/292 306/291/291 307/293/293
f 297/292/292 307/293/293 308/294/294
f 308/294/294 307/293/293 347/295/295
f 308/294/294 347/295/295 346/296/296
f 346/296/296 347/295/295 324/297/297
f 346/296/296 324/297/297 325/298/298
f 325/298/298 324/297/297 373/299/299
f 325/298/298 373/299/299 372/300/300
f 372/300/300 373/299/299 353/301/301
f 372/300/300 353/301/301 354/302/302
f 354/302/302 353/301/301 400/303/303
f 354/302/302 400/303/303 399/304/304
f 399/304/304 400/303/303 384/305/305
f 399/304/304 384/305/305 385/306/306
f 385/306/306 384/305/305 428/307/307
f 385/306/306 428/307/307 427/308/308
f 427/308/308 428/307/307 416/309/309
f 427/308/308 416/309/309 417/310/310
f 417/310/310 416/309/309 447/311/311
f 417/310/310 447/311/311 448/312/312
f 448/312/312 447/311/311 469/313/313
f 448/312/312 469/313/313 468/314/314
f 468/314/314 469/313/313 463/315/315
f 468/314/314 463/315/315 464/316/316
f 464/316/316 463/315/315 494/317/317
f 464/316/316 494/317/317 300/318/318
f 300/318/318 494/317/317 493/319/319
f 300/318/318 493/319/319 273/320/320
f 273/320/320 493/319/319 274/321/321
f 274/321/321 493/319/319 508/322/322
f 274/321/321 508/322/322 262/323/323
f 262/323/323 508/322/322 290/324/324
f 290/324/324 508/322/322 509/325/325
f 290/324/324 509/325/325 510/326/326
f 510/326/326 509/325/325 491/327/327
f 510/326/326 491/327/327 490/328/328
f 490/328/328 491/327/327 496/329/329
f 490/328/328 496/329/329 497/330/330
f 497/330/330 496/329/329 461/331/331
f 497/330/330 461/331/331 460/332/332
f 460/332/332 461/331/331 471/333/333
f 460/332/332 471/333/333 472/334/334
f 472/334/334 471/333/333 445/335/335
f 472/334/334 445/335/335 444/336/336
f 444/336/336 445/335/335 414/337/337
f 444/336/336 414/337/337 413/338/338
f 413/338/338 414/337/337 430/339/339
f 413/338/338 430/339/339 431/340/340
f 431/340/340 430/339/339 382/341/341
f 431/340/340 382/341/341 381/342/342
f 381/342/342 382/341/341 402/343/343
f 381/342/342 402/343/343 403/344/344
f 403/344/344 402/343/343 351/345/345
f 403/344/344 351/345/345 350/346/346
f 350/346/346 351/345/345 375/347/347
f 350/346/346 375/347/347 376/348/348
f 376/348/348 375/347/347 322/349/349
f 376/348/348 322/349/349 321/350/350
f 321/350/350 322/349/349 305/289/289
f 321/350/350 305/289/289 276/288/288
f 321/350/350 276/288/288 303/351/351
f 303/351/351 276/288/288 277/352/352
f 303/351/351 277/352/352 302/353/353
f 302/353/353 277/352/352 278/354/354
f 302/353/353 278/354/354 406/355/355
f 406/355/355 278/354/354 377/356/356
f 406/355/355 377/356/356 378/357/357
f 378/357/357 377/356/356 435/358/358
f 378/357/357 435/358/358 434/359/359
f 434/359/359 435/358/358 409/360/360
f 434/359/359 409/360/360 410/361/361
f 410/361/361 409/360/360 440/362/362
f 410/361/361 440/362/362 441/363/363
f 441/363/363 440/362/362 476/364/364
f 441/363/363 476/364/364 475/365/365
f 475/365/365 476/364/364 456/366/366
f 475/365/365 456/366/366 457/367/367
f 457/367/367 456/366/366 501/368/368
f 457/367/367 501/368/368 500/369/369
f 500/369/369 501/368/368 486/370/370
f 500/369/369 486/370/370 487/371/371
f 487/371/371 486/370/370 514/372/372
f 487/371/371 514/372/372 513/373/373
f 513/373/373 514/372/372 288/374/374
f 513/373/373 288/374/374 512/375/375
f 512/375/375 288/374/374 289/376/376
f 512/375/375 289/376/376 511/377/377
f 511/377/377 289/376/376 510/326/326
f 511/377/377 510/326/326 490/328/328
f 278/354/354 279/378/378 377/356/356
f 377/356/356 279/378/378 436/379/379
f 377/356/356 436/379/379 435/358/358
f 435/358/358 436/379/379 408/380/380
f 435/358/358 408/380/380 409/360/360
f 409/360/360 408/380/380 439/381/381
f 409/360/360 439/381/381 440/362/362
f 440/362/362 439/381/381 477/382/382
f 440/362/362 477/382/382 476/364/364
f 476/364/364 477/382/382 455/383/383
f 476/364/364 455/383/383 456/366/366
f 456/366/366 455/383/383 502/384/384
f 456/366/366 502/384/384 501/368/368
f 501/368/368 502/384/384 485/385/385
f 501/368/368 485/385/385 486/370/370
f 486/370/370 485/385/385 515/386/386
f 486/370/370 515/386/386 514/372/372
f 514/372/372 515/386/386 287/387/387
f 514/372/372 287/387/387 288/374/374
f 436/379/379 279/378/378 407/388/388
f 407/388/388 279/378/378 280/389/389
f 407/388/388 280/389/389 437/390/390
f 437/390/390 280/389/389 301/391/391
f 437/390/390 301/391/391 479/392/392
f 479/392/392 301/391/391 452/393/393
f 479/392/392 452/393/393 453/394/394
f 453/394/394 452/393/393 505/395/395
f 453/394/394 505/395/395 504/396/396
f 504/396/396 505/395/395 482/397/397
f 504/396/396 482/397/397 483/398/398
f 483/398/398 482/397/397 518/399/399
f 483/398/398 518/399/399 517/400/400
f 517/400/400 518/399/399 286/401/401
f 517/400/400 286/401/401 516/402/402
f 516/402/402 286/401/401 287/387/387
f 516/402/402 287/387/387 515/386/386
f 280/389/389 281/403/403 301/391/391
f 301/391/391 281/403/403 299/404/404
f 301/391/391 299/404/404 452/393/393
f 452/393/393 299/404/404 506/405/405
f 452/393/393 506/405/405 505/395/395
f 505/395/395 506/405/405 481/406/406
f 505/395/395 481/406/406 482/397/397
f 482/397/397 481/406/406 519/407/407
f 482/397/397 519/407/407 518/399/399
f 518/399/399 519/407/407 285/408/408
f 518/399/399 285/408/408 286/401/401
f 281/403/403 282/409/409 299/404/404
f 299/404/404 282/409/409 507/410/410
f 299/404/404 507/410/410 506/405/405
f 506/405/405 507/410/410 480/411/411
f 506/405/405 480/411/411 481/406/406
f 481/406/406 480/411/411 520/412/412
f 481/406/406 520/412/412 519/407/407
f 519/407/407 520/412/412 285/408/408
f 507/410/410 282/409/409 298/413/413
f 298/413/413 282/409/409 283/414/414
f 298/413/413 283/414/414 522/415/415
f 522/415/415 283/414/414 284/416/416
f 522/415/415 284/416/416 521/417/417
f 521/417/417 284/416/416 520/412/412
f 521/417/417 520/412/412 480/411/411
f 284/416/416 285/408/408 520/412/412
f 289/376/376 290/324/324 510/326/326
f 273/320/320 272/418/418 300/318/318
f 300/318/318 272/418/418 465/419/419
f 300/318/318 465/419/419 464/316/316
f 464/316/316 465/419/419 467/420/420
f 464/316/316 467/420/420 468/314/314
f 468/314/314 467/420/420 449/421/421
f 468/314/314 449/421/421 448/312/312
f 448/312/312 449/421/421 418/422/422
f 448/312/312 418/422/422 417/310/310
f 417/310/310 418/422/422 426/423/423
f 417/310/310 426/423/423 427/308/308
f 427/308/308 426/423/423 386/424/424
f 427/308/308 386/424/424 385/306/306
f 385/306/306 386/424/424 398/425/425
f 385/306/306 398/425/425 399/304/304
f 399/304/304 398/425/425 355/426/426
f 399/304/304 355/426/426 354/302/302
f 354/302/302 355/426/426 371/427/427
f 354/302/302 371/427/427 372/300/300
f 372/300/300 371/427/427 326/428/428
f 372/300/300 326/428/428 325/298/298
f 325/298/298 326/428/428 345/429/429
f 325/298/298 345/429/429 346/296/296
f 346/296/296 345/429/429 309/430/430
f 346/296/296 309/430/430 308/294/294
f 308/294/294 309/430/430 296/431/431
f 308/294/294 296/431/431 297/292/292
f 465/419/419 272/418/418 466/432/432
f 466/432/432 272/418/418 271/433/433
f 466/432/432 271/433/433 451/434/434
f 451/434/434 271/433/433 270/435/435
f 451/434/434 270/435/435 421/436/436
f 421/436/436 270/435/435 269/437/437
f 421/436/436 269/437/437 422/438/438
f 422/438/438 269/437/437 391/439/439
f 422/438/438 391/439/439 390/440/440
f 390/440/440 391/439/439 393/441/441
f 390/440/440 393/441/441 394/442/442
f 394/442/442 393/441/441 360/443/443
f 394/442/442 360/443/443 359/444/444
f 359/444/444 360/443/443 366/445/445
f 359/444/444 366/445/445 367/446/446
f 367/446/446 366/445/445 331/447/447
f 367/446/446 331/447/447 330/448/448
f 330/448/448 331/447/447 340/449/449
f 330/448/448 340/449/449 341/450/450
f 341/450/450 340/449/449 314/451/451
f 341/450/450 314/451/451 313/452/452
f 313/452/452 314/451/451 294/453/453
f 313/452/452 294/453/453 312/454/454
f 312/454/454 294/453/453 295/455/455
f 312/454/454 295/455/455 311/456/456
f 311/456/456 295/455/455 310/457/457
f 311/456/456 310/457/457 344/458/458
f 344/458/458 310/457/457 345/429/429
f 344/458/458 345/429/429 326/428/428
f 269/437/437 268/459/459 391/439/439
f 391/439/439 268/459/459 392/460/460
f 391/439/439 392/460/460 393/441/441
f 393/441/441 392/460/460 361/461/461
f 393/441/441 361/461/461 360/443/443
f 360/443/443 361/461/461 365/462/462
f 360/443/443 365/462/462 366/445/445
f 366/445/445 365/462/462 332/463/463
f 366/445/445 332/463/463 331/447/447
f 331/447/447 332/463/463 339/464/464
f 331/447/447 339/464/464 340/449/449
f 340/449/449 339/464/464 315/465/465
f 340/449/449 315/465/465 314/451/451
f 314/451/451 315/465/465 293/466/466
f 314/451/451 293/466/466 294/453/453
f 268/459/459 267/467/467 392/460/460
f 392/460/460 267/467/467 362/468/468
f 392/460/460 362/468/468 361/461/461
f 361/461/461 362/468/468 364/469/469
f 361/461/461 364/469/469 365/462/462
f 365/462/462 364/469/469 333/470/470
f 365/462/462 333/470/470 332/463/463
f 332/463/463 333/470/470 338/471/471
f 332/463/463 338/471/471 339/464/464
f 339/464/464 338/471/471 316/472/472
f 339/464/464 316/472/472 315/465/465
f 315/465/465 316/472/472 293/466/466
f 267/467/467 266/473/473 362/468/468
f 362/468/468 266/473/473 363/474/474
f 362/468/468 363/474/474 364/469/469
f 364/469/469 363/474/474 334/475/475
f 364/469/469 334/475/475 333/470/470
f 333/470/470 334/475/475 337/476/476
f 333/470/470 337/476/476 338/471/471
f 338/471/471 337/476/476 317/477/477
f 338/471/471 317/477/477 316/472/472
f 316/472/472 317/477/477 292/478/478
f 316/472/472 292/478/478 293/466/466
f 363/474/474 266/473/473 304/479/479
f 304/479/479 266/473/473 265/480/480
f 304/479/479 265/480/480 335/481/481
f 335/481/481 265/480/480 264/482/482
f 335/481/481 264/482/482 320/483/483
f 320/483/483 264/482/482 263/484/484
f 320/483/483 263/484/484 291/485/485
f 292/478/478 318/486/486 291/485/485
f 291/485/485 318/486/486 319/487/487
f 291/485/485 319/487/487 320/483/483
f 320/483/483 319/487/487 335/481/481
f 295/455/455 296/431/431 310/457/457
f 310/457/457 296/431/431 309/430/430
f 310/457/457 309/430/430 345/429/429
f 307/293/293 306/291/291 348/488/488
f 348/488/488 306/291/291 305/289/289
f 348/488/488 305/289/289 322/349/349
f 312/454/454 311/456/456 343/489/489
f 343/489/489 311/456/456 344/458/458
f 343/489/489 344/458/458 327/490/490
f 327/490/490 344/458/458 326/428/428
f 327/490/490 326/428/428 371/427/427
f 313/452/452 312/454/454 342/491/491
f 342/491/491 312/454/454 343/489/489
f 342/491/491 343/489/489 328/492/492
f 328/492/492 343/489/489 327/490/490
f 328/492/492 327/490/490 370/493/493
f 370/493/493 327/490/490 371/427/427
f 370/493/493 371/427/427 355/426/426
f 318/486/486 292/478/478 317/477/477
f 317/477/477 337/476/476 318/486/486
f 318/486/486 337/476/476 336/494/494
f 318/486/486 336/494/494 319/487/487
f 319/487/487 336/494/494 335/481/481
f 322/349/349 323/495/495 348/488/488
f 348/488/488 323/495/495 347/295/295
f 348/488/488 347/295/295 307/293/293
f 347/295/295 323/495/495 324/297/297
f 324/297/297 323/495/495 374/496/496
f 324/297/297 374/496/496 373/299/299
f 373/299/299 374/496/496 352/497/497
f 373/299/299 352/497/497 353/301/301
f 353/301/301 352/497/497 401/498/498
f 353/301/301 401/498/498 400/303/303
f 400/303/303 401/498/498 383/499/499
f 400/303/303 383/499/499 384/305/305
f 384/305/305 383/499/499 429/500/500
f 384/305/305 429/500/500 428/307/307
f 428/307/307 429/500/500 415/501/501
f 428/307/307 415/501/501 416/309/309
f 416/309/309 415/501/501 446/502/502
f 416/309/309 446/502/502 447/311/311
f 447/311/311 446/502/502 470/503/503
f 447/311/311 470/503/503 469/313/313
f 469/313/313 470/503/503 462/504/504
f 469/313/313 462/504/504 463/315/315
f 463/315/315 462/504/504 495/505/505
f 463/315/315 495/505/505 494/317/317
f 494/317/317 495/505/505 492/506/506
f 494/317/317 492/506/506 493/319/319
f 493/319/319 492/506/506 508/322/322
f 374/496/496 323/495/495 375/347/347
f 375/347/347 323/495/495 322/349/349
f 328/492/492 329/507/507 342/491/491
f 342/491/491 329/507/507 341/450/450
f 342/491/491 341/450/450 313/452/452
f 341/450/450 329/507/507 330/448/448
f 330/448/448 329/507/507 368/508/508
f 330/448/448 368/508/508 367/446/446
f 367/446/446 368/508/508 358/509/509
f 367/446/446 358/509/509 359/444/444
f 359/444/444 358/509/509 395/510/510
f 359/444/444 395/510/510 394/442/442
f 394/442/442 395/510/510 389/511/511
f 394/442/442 389/511/511 390/440/440
f 390/440/440 389/511/511 423/512/512
f 390/440/440 423/512/512 422/438/438
f 422/438/438 423/512/512 421/436/436
f 329/507/507 328/492/492 369/513/513
f 369/513/513 328/492/492 370/493/493
f 369/513/513 370/493/493 356/514/514
f 356/514/514 370/493/493 355/426/426
f 356/514/514 355/426/426 398/425/425
f 336/494/494 337/476/476 334/475/475
f 335/481/481 336/494/494 304/479/479
f 304/479/479 336/494/494 334/475/475
f 304/479/479 334/475/475 363/474/474
f 302/353/353 349/515/515 303/351/351
f 303/351/351 349/515/515 376/348/348
f 303/351/351 376/348/348 321/350/350
f 376/348/348 349/515/515 350/346/346
f 350/346/346 349/515/515 404/516/516
f 350/346/346 404/516/516 403/344/344
f 403/344/344 404/516/516 380/517/517
f 403/344/344 380/517/517 381/342/342
f 381/342/342 380/517/517 432/518/518
f 381/342/342 432/518/518 431/340/340
f 431/340/340 432/518/518 412/519/519
f 431/340/340 412/519/519 413/338/338
f 413/338/338 412/519/519 443/520/520
f 413/338/338 443/520/520 444/336/336
f 444/336/336 443/520/520 473/521/521
f 444/336/336 473/521/521 472/334/334
f 472/334/334 473/521/521 459/522/522
f 472/334/334 459/522/522 460/332/332
f 460/332/332 459/522/522 498/523/523
f 460/332/332 498/523/523 497/330/330
f 497/330/330 498/523/523 489/524/524
f 497/330/330 489/524/524 490/328/328
f 490/328/328 489/524/524 511/377/377
f 349/515/515 302/353/353 405/525/525
f 405/525/525 302/353/353 406/355/355
f 405/525/525 406/355/355 378/357/357
f 374/496/496 375/347/347 351/345/345
f 374/496/496 351/345/345 352/497/497
f 352/497/497 351/345/345 402/343/343
f 352/497/497 402/343/343 401/498/498
f 401/498/498 402/343/343 382/341/341
f 401/498/498 382/341/341 383/499/499
f 383/499/499 382/341/341 430/339/339
f 383/499/499 430/339/339 429/500/500
f 429/500/500 430/339/339 414/337/337
f 429/500/500 414/337/337 415/501/501
f 415/501/501 414/337/337 445/335/335
f 415/501/501 445/335/335 446/502/502
f 446/502/502 445/335/335 471/333/333
f 446/502/502 471/333/333 470/503/503
f 470/503/503 471/333/333 461/331/331
f 470/503/503 461/331/331 462/504/504
f 462/504/504 461/331/331 496/329/329
f 462/504/504 496/329/329 495/505/505
f 495/505/505 496/329/329 491/327/327
f 495/505/505 491/327/327 492/506/506
f 492/506/506 491/327/327 509/325/325
f 492/506/506 509/325/325 508/322/322
f 356/514/514 357/526/526 369/513/513
f 369/513/513 357/526/526 368/508/508
f 369/513/513 368/508/508 329/507/507
f 368/508/508 357/526/526 358/509/509
f 358/509/509 357/526/526 396/527/527
f 358/509/509 396/527/527 395/510/510
f 395/510/510 396/527/527 388/528/528
f 395/510/510 388/528/528 389/511/511
f 389/511/511 388/528/528 424/529/529
f 389/511/511 424/529/529 423/512/512
f 423/512/512 424/529/529 420/530/530
f 423/512/512 420/530/530 421/436/436
f 421/436/436 420/530/530 451/434/434
f 357/526/526 356/514/514 397/531/531
f 397/531/531 356/514/514 398/425/425
f 397/531/531 398/425/425 386/424/424
f 378/357/357 379/532/532 405/525/525
f 405/525/525 379/532/532 404/516/516
f 405/525/525 404/516/516 349/515/515
f 404/516/516 379/532/532 380/517/517
f 380/517/517 379/532/532 433/533/533
f 380/517/517 433/533/533 432/518/518
f 432/518/518 433/533/533 411/534/534
f 432/518/518 411/534/534 412/519/519
f 412/519/519 411/534/534 442/535/535
f 412/519/519 442/535/535 443/520/520
f 443/520/520 442/535/535 474/536/536
f 443/520/520 474/536/536 473/521/521
f 473/521/521 474/536/536 458/537/537
f 473/521/521 458/537/537 459/522/522
f 459/522/522 458/537/537 499/538/538
f 459/522/522 499/538/538 498/523/523
f 498/523/523 499/538/538 488/539/539
f 498/523/523 488/539/539 489/524/524
f 489/524/524 488/539/539 512/375/375
f 489/524/524 512/375/375 511/377/377
f 433/533/533 379/532/532 434/359/359
f 434/359/359 379/532/532 378/357/357
f 386/424/424 387/540/540 397/531/531
f 397/531/531 387/540/540 396/527/527
f 397/531/531 396/527/527 357/526/526
f 396/527/527 387/540/540 388/528/528
f 388/528/528 387/540/540 425/541/541
f 388/528/528 425/541/541 424/529/529
f 424/529/529 425/541/541 419/542/542
f 424/529/529 419/542/542 420/530/530
f 420/530/530 419/542/542 450/543/543
f 420/530/530 450/543/543 451/434/434
f 451/434/434 450/543/543 466/432/432
f 425/541/541 387/540/540 426/423/423
f 426/423/423 387/540/540 386/424/424
f 436/379/379 407/388/388 408/380/380
f 408/380/380 407/388/388 438/544/544
f 408/380/380 438/544/544 439/381/381
f 439/381/381 438/544/544 478/545/545
f 439/381/381 478/545/545 477/382/382
f 477/382/382 478/545/545 454/546/546
f 477/382/382 454/546/546 455/383/383
f 455/383/383 454/546/546 503/547/547
f 455/383/383 503/547/547 502/384/384
f 502/384/384 503/547/547 484/548/548
f 502/384/384 484/548/548 485/385/385
f 485/385/385 484/548/548 516/402/402
f 485/385/385 516/402/402 515/386/386
f 433/533/533 434/359/359 410/361/361
f 433/533/533 410/361/361 411/534/534
f 411/534/534 410/361/361 441/363/363
f 411/534/534 441/363/363 442/535/535
f 442/535/535 441/363/363 475/365/365
f 442/535/535 475/365/365 474/536/536
f 474/536/536 475/365/365 457/367/367
f 474/536/536 457/367/367 458/537/537
f 458/537/537 457/367/367 500/369/369
f 458/537/537 500/369/369 499/538/538
f 499/538/538 500/369/369 487/371/371
f 499/538/538 487/371/371 488/539/539
f 488/539/539 487/371/371 513/373/373
f 488/539/539 513/373/373 512/375/375
f 425/541/541 426/423/423 418/422/422
f 425/541/541 418/422/422 419/542/542
f 419/542/542 418/422/422 449/421/421
f 419/542/542 449/421/421 450/543/543
f 450/543/543 449/421/421 467/420/420
f 450/543/543 467/420/420 466/432/432
f 466/432/432 467/420/420 465/419/419
f 407/388/388 437/390/390 438/544/544
f 438/544/544 437/390/390 479/392/392
f 438/544/544 479/392/392 478/545/545
f 478/545/545 479/392/392 453/394/394
f 478/545/545 453/394/394 454/546/546
f 454/546/546 453/394/394 504/396/396
f 454/546/546 504/396/396 503/547/547
f 503/547/547 504/396/396 483/398/398
f 503/547/547 483/398/398 484/548/548
f 484/548/548 483/398/398 517/400/400
f 484/548/548 517/400/400 516/402/402
f 521/417/417 480/411/411 298/413/413
f 298/413/413 480/411/411 507/410/410
f 522/415/415 521/417/417 298/413/413
f 9/549/549 283/550/550 10/551/551
f 10/551/551 283/550/550 282/552/552
f 10/551/551 282/552/552 11/553/553
f 11/553/553 282/552/552 281/554/554
f 11/553/553 281/554/554 12/555/555
f 12/555/555 281/554/554 280/556/556
f 12/555/555 280/556/556 13/557/557
f 13/557/557 280/556/556 279/558/558
f 13/557/557 279/558/558 14/559/559
f 14/559/559 279/558/558 278/560/560
f 14/559/559 278/560/560 15/561/561
f 15/561/561 278/560/560 277/562/562
f 15/561/561 277/562/562 16/563/563
f 16/563/563 277/562/562 276/564/564
f 16/563/563 276/564/564 17/565/565
f 17/565/565 276/564/564 275/566/566
f 17/567/567 275/568/568 18/569/569
f 18/569/569 275/568/568 297/570/570
f 18/569/569 297/570/570 19/571/571
f 19/571/571 297/570/570 296/572/572
f 19/571/571 296/572/572 20/573/573
f 20/573/573 296/572/572 295/574/574
f 20/573/573 295/574/574 21/575/575
f 21/575/575 295/574/574 294/576/576
f 21/575/575 294/576/576 22/577/577
f 22/577/577 294/576/576 293/578/578
f 22/577/577 293/578/578 23/579/579
f 23/579/579 293/578/578 292/580/580
f 23/579/579 292/580/580 24/581/581
f 24/581/581 292/580/580 291/582/582
f 24/581/581 291/582/582 25/583/583
f 25/583/583 291/582/582 263/584/584
f 9/585/585 8/586/586 283/587/587
f 283/587/587 8/586/586 284/588/588
f 284/588/588 8/586/586 7/589/589
f 284/588/588 7/589/589 285/590/590
f 285/590/590 7/589/589 6/591/591
f 285/590/590 6/591/591 286/592/592
f 286/592/592 6/591/591 5/593/593
f 286/592/592 5/593/593 287/594/594
f 287/594/594 5/593/593 4/595/595
f 287/594/594 4/595/595 288/596/596
f 288/596/596 4/595/595 3/597/597
f 288/596/596 3/597/597 289/598/598
f 289/598/598 3/597/597 2/599/599
f 289/598/598 2/599/599 290/600/600
f 290/600/600 2/599/599 1/601/601
f 290/600/600 1/601/601 262/602/602
# 522 vertices
# 602 texture params
# 602 normals
# 1040 facets

# 1 groups
